<svg width="222" height="444" viewBox="0 0 222 444" fill="none" xmlns="http://www.w3.org/2000/svg">
<g clip-path="url(#clip0_369_82)">
<path d="M68.8371 443.164L107.386 352.141L79.591 356.097C78.176 346.468 77.1174 336.802 76.5569 327.078C74.0217 275.318 84.4214 223.105 107.678 175.528C171.197 41.5664 329.232 -42.8489 490.96 -31.6117C528.015 -29.2674 564.649 -22.125 599.651 -10.7057C617.123 -4.7891 634.209 2.13793 650.794 10.0002C634.728 1.30484 618.046 -6.5305 600.828 -13.3863C527.829 -41.8587 445.682 -50.0631 367.501 -37.366C156.254 -2.96933 12.0646 172.774 29.6918 363.172L0.452128 367.334L68.8043 443.143L68.8371 443.164Z" fill="white"/>
</g>
<defs>
<clipPath id="clip0_369_82">
<rect width="222" height="444" fill="white"/>
</clipPath>
</defs>
</svg>
