<svg width="603" height="309" viewBox="0 0 603 309" fill="none" xmlns="http://www.w3.org/2000/svg">
<path d="M602.255 155.916L516.216 179.041L532.593 195.468C526.149 201.58 519.505 207.475 512.577 213.067C475.484 242.539 431.797 263.622 385.322 273.635C255.412 303.141 116.455 242.975 46.5251 129.006C30.3323 103.017 17.8955 74.7344 9.41519 45.2459C5.34195 30.4095 2.20356 15.2885 0 0C1.33549 15.389 3.60582 30.7277 6.86107 45.8989C21.1007 109.9 54.7717 169.128 101.998 214.491C229.671 337.016 429.543 338.925 561.973 224.973L579.201 242.255L602.255 155.949V155.916Z" fill="white"/>
</svg>
