<svg width="19" height="20" viewBox="0 0 19 20" fill="none" xmlns="http://www.w3.org/2000/svg">
<g clip-path="url(#clip0_30_2002)">
<path d="M9.98746 0C5.09361 0 1.10972 3.98389 1.10972 8.87774H0V14.4263H3.32915V8.87774C3.32915 5.20458 6.31429 2.21944 9.98746 2.21944C13.6606 2.21944 16.6458 5.20458 16.6458 8.87774V13.8382L10.7643 17.7555H8.87774V19.9749H11.4301L18.8652 15.0145V14.4263H19.9749V8.87774H18.8652C18.8652 3.98389 14.8813 0 9.98746 0Z" fill="#FFF8E0"/>
<path d="M15.5361 9.98743C15.5361 6.92461 13.0503 4.43884 9.98747 4.43884C6.92465 4.43884 4.43888 6.92461 4.43888 9.98743C4.43888 13.0503 6.92465 15.536 9.98747 15.536C13.0503 15.536 15.5361 13.0503 15.5361 9.98743ZM6.65831 9.98743C6.65831 8.1564 8.15643 6.65828 9.98747 6.65828C11.8185 6.65828 13.3166 8.1564 13.3166 9.98743C13.3166 11.8185 11.8185 13.3166 9.98747 13.3166C8.15643 13.3166 6.65831 11.8185 6.65831 9.98743Z" fill="#FFF8E0"/>
</g>
<defs>
<clipPath id="clip0_30_2002">
<rect width="19.9749" height="19.9749" fill="white"/>
</clipPath>
</defs>
</svg>
