<svg width="22" height="22" viewBox="0 0 22 22" fill="none" xmlns="http://www.w3.org/2000/svg">
<g clip-path="url(#clip0_30_1986)">
<path d="M10.5423 0C4.72015 0 0 4.71999 0 10.542C0 16.3639 4.72015 21.0846 10.5423 21.0846C16.3645 21.0846 21.0846 16.3646 21.0846 10.542C21.0846 4.71999 16.3645 0 10.5423 0ZM16.5627 11.8646C16.0876 14.8817 13.4745 17.0414 10.5114 17.0414C10.1958 17.0414 9.87675 17.0168 9.55556 16.9662C6.21716 16.4398 3.92877 13.2962 4.45378 9.95864C4.7082 8.34151 5.57689 6.91975 6.9003 5.95621C8.03957 5.12691 9.39813 4.7235 10.7862 4.78886L9.765 3.8169L10.4341 3.1148L12.0007 4.60754L12.7014 5.2759L12.033 5.978L10.5402 7.54453L9.8388 6.87547L10.7848 5.88382C9.62795 5.81846 8.4936 6.15018 7.54408 6.84103C6.45682 7.63238 5.74275 8.80043 5.53401 10.1287C5.10319 12.871 6.98323 15.4538 9.72564 15.8853C12.4681 16.3162 15.0509 14.4362 15.4817 11.6939C15.7664 9.88345 15.0446 8.05898 13.5961 6.9324L14.268 6.06936C16.0299 7.44052 16.9092 9.66066 16.5627 11.8639V11.8646ZM8.51046 12.3299L8.47462 12.2456L9.37564 11.8632L9.41148 11.9476C9.55486 12.2877 10.0503 12.5442 10.5634 12.5442C10.7939 12.5442 11.5467 12.5021 11.5467 11.9581C11.5467 11.6735 11.2248 11.5027 10.5339 11.4212C9.75797 11.334 8.69531 11.2152 8.69531 10.0444C8.69531 9.32683 9.23226 8.82503 10.1368 8.6908V8.1391H11.1081V8.69361C11.5277 8.7674 12.0815 8.95013 12.3907 9.58195L12.4315 9.66558L11.6022 10.0493L11.56 9.97973C11.4145 9.74008 10.9872 9.55173 10.588 9.55173C10.3181 9.55173 9.6912 9.59952 9.6912 10.0444C9.6912 10.3642 10.0953 10.4373 10.6231 10.5005C11.449 10.6024 12.5798 10.7416 12.5798 11.9574C12.5798 12.8521 11.8538 13.3236 11.1074 13.4073V14.0363H10.1361V13.4375C9.35244 13.3454 8.77613 12.9533 8.50976 12.3292L8.51046 12.3299Z" fill="#FFF8E0"/>
</g>
<defs>
<clipPath id="clip0_30_1986">
<rect width="21.0846" height="21.0846" fill="white"/>
</clipPath>
</defs>
</svg>
