<svg width="48" height="49" viewBox="0 0 48 49" fill="none" xmlns="http://www.w3.org/2000/svg">
<rect x="1.5" y="2.45703" width="45" height="45" rx="22.5" stroke="white" stroke-width="3"/>
<path d="M14.098 28.5934V20.7298H15.8821V28.5934H14.098ZM11.0582 25.5536V23.7695H18.9219V25.5536H11.0582ZM26.142 18.8207V30.457H24.0341V20.8718H23.9659L21.2443 22.6104V20.6786L24.1364 18.8207H26.142ZM33.233 30.6161C32.3883 30.6161 31.6383 30.4741 30.983 30.19C30.3314 29.9059 29.8201 29.5176 29.4489 29.0252C29.0814 28.529 28.8996 27.9665 28.9034 27.3377C28.8996 26.8491 29.0057 26.4002 29.2216 25.9911C29.4375 25.582 29.7292 25.2411 30.0966 24.9684C30.4678 24.6919 30.8807 24.5157 31.3352 24.44V24.3604C30.7367 24.2279 30.2519 23.9229 29.8807 23.4457C29.5133 22.9646 29.3314 22.4097 29.3352 21.7809C29.3314 21.1824 29.4981 20.6483 29.8352 20.1786C30.1723 19.7089 30.6345 19.3396 31.2216 19.0707C31.8087 18.7979 32.4792 18.6616 33.233 18.6616C33.9792 18.6616 34.6439 18.7979 35.2273 19.0707C35.8144 19.3396 36.2765 19.7089 36.6136 20.1786C36.9545 20.6483 37.125 21.1824 37.125 21.7809C37.125 22.4097 36.9375 22.9646 36.5625 23.4457C36.1913 23.9229 35.7121 24.2279 35.125 24.3604V24.44C35.5795 24.5157 35.9886 24.6919 36.3523 24.9684C36.7197 25.2411 37.0114 25.582 37.2273 25.9911C37.447 26.4002 37.5568 26.8491 37.5568 27.3377C37.5568 27.9665 37.3712 28.529 37 29.0252C36.6288 29.5176 36.1174 29.9059 35.4659 30.19C34.8182 30.4741 34.0739 30.6161 33.233 30.6161ZM33.233 28.9911C33.6686 28.9911 34.0473 28.9173 34.3693 28.7695C34.6913 28.618 34.9413 28.4059 35.1193 28.1332C35.2973 27.8604 35.3883 27.546 35.392 27.19C35.3883 26.8188 35.2917 26.4911 35.1023 26.207C34.9167 25.9192 34.661 25.6938 34.3352 25.5309C34.0133 25.368 33.6458 25.2866 33.233 25.2866C32.8163 25.2866 32.4451 25.368 32.1193 25.5309C31.7936 25.6938 31.536 25.9192 31.3466 26.207C31.161 26.4911 31.0701 26.8188 31.0739 27.19C31.0701 27.546 31.1572 27.8604 31.3352 28.1332C31.5133 28.4021 31.7633 28.6123 32.0852 28.7638C32.411 28.9154 32.7936 28.9911 33.233 28.9911ZM33.233 23.69C33.589 23.69 33.9034 23.618 34.1761 23.4741C34.4527 23.3301 34.6705 23.1294 34.8295 22.8718C34.9886 22.6142 35.0701 22.3169 35.0739 21.9798C35.0701 21.6464 34.9905 21.3548 34.8352 21.1048C34.6799 20.851 34.464 20.6559 34.1875 20.5195C33.911 20.3794 33.5928 20.3093 33.233 20.3093C32.8655 20.3093 32.5417 20.3794 32.2614 20.5195C31.9848 20.6559 31.7689 20.851 31.6136 21.1048C31.4621 21.3548 31.3883 21.6464 31.392 21.9798C31.3883 22.3169 31.464 22.6142 31.6193 22.8718C31.7784 23.1256 31.9962 23.3263 32.2727 23.4741C32.553 23.618 32.8731 23.69 33.233 23.69Z" fill="white"/>
</svg>
