<svg width="24" height="25" viewBox="0 0 24 25" fill="none" xmlns="http://www.w3.org/2000/svg">
<g clip-path="url(#clip0_4087_504)">
<path d="M24 12.3899C24 5.7625 18.6274 0.389919 12 0.389919C5.37258 0.389919 0 5.7625 0 12.3899C0 18.3795 4.38823 23.3439 10.125 24.2441V15.8587H7.07813V12.3899H10.125V9.74617C10.125 6.73867 11.9165 5.07742 14.6576 5.07742C15.9705 5.07742 17.3438 5.31179 17.3438 5.31179V8.26492H15.8306C14.3399 8.26492 13.875 9.18993 13.875 10.1389V12.3899H17.2031L16.6711 15.8587H13.875V24.2441C19.6118 23.3439 24 18.3795 24 12.3899Z" fill="white"/>
</g>
<defs>
<clipPath id="clip0_4087_504">
<rect width="24" height="24" fill="white" transform="translate(0 0.390625)"/>
</clipPath>
</defs>
</svg>
