<svg width="19" height="19" viewBox="0 0 19 19" fill="none" xmlns="http://www.w3.org/2000/svg">
<g clip-path="url(#clip0_30_1989)">
<path d="M17.7459 5.11572H16.4671C15.8502 5.11572 15.3478 5.61812 15.3478 6.23503V15.8274C15.3478 16.4443 15.8502 16.9467 16.4671 16.9467H17.7459C18.3628 16.9467 18.8652 16.4443 18.8652 15.8274V6.23503C18.8652 5.61812 18.3628 5.11572 17.7459 5.11572Z" fill="#FFF8E0"/>
<path d="M11.3508 7.67389C10.7339 7.67389 10.2315 8.17629 10.2315 8.7932V15.8274C10.2315 16.4443 10.7339 16.9467 11.3508 16.9467H12.6296C13.2465 16.9467 13.7489 16.4443 13.7489 15.8274V8.7932C13.7489 8.17629 13.2465 7.67389 12.6296 7.67389H11.3508Z" fill="#FFF8E0"/>
<path d="M6.23505 10.2321C5.61814 10.2321 5.11574 10.7345 5.11574 11.3514V15.828C5.11574 16.4449 5.61814 16.9473 6.23505 16.9473H7.51383C8.13074 16.9473 8.63314 16.4449 8.63314 15.828V11.3514C8.63314 10.7345 8.13074 10.2321 7.51383 10.2321H6.23505Z" fill="#FFF8E0"/>
<path d="M1.11931 16.9468H2.39809C3.015 16.9468 3.5174 16.4444 3.5174 15.8275V13.909C3.5174 13.2921 3.015 12.7897 2.39809 12.7897H1.11931C0.502401 12.7897 0 13.2921 0 13.909V15.8275C0 16.4444 0.502401 16.9468 1.11931 16.9468Z" fill="#FFF8E0"/>
<path d="M18.3856 17.906H0.479619C0.214629 17.906 0 18.1206 0 18.3856C0 18.6506 0.214629 18.8652 0.479619 18.8652H18.3856C18.6506 18.8652 18.8652 18.6506 18.8652 18.3856C18.8652 18.1206 18.6506 17.906 18.3856 17.906Z" fill="#FFF8E0"/>
<path d="M1.75839 9.95689C1.79436 9.95689 1.83153 9.95269 1.86871 9.94429C7.64631 8.58518 12.8376 5.68108 16.6272 1.71524V3.03779C16.6272 3.30277 16.8418 3.5174 17.1068 3.5174C17.3718 3.5174 17.5864 3.30277 17.5864 3.03779V0.479619C17.5864 0.214629 17.3718 0 17.1068 0H14.5486C14.2836 0 14.069 0.214629 14.069 0.479619C14.069 0.744608 14.2836 0.959238 14.5486 0.959238H16.0259C12.3568 4.83995 7.29319 7.68229 1.64868 9.01024C1.39089 9.07079 1.23141 9.32918 1.29196 9.58698C1.34352 9.8076 1.54077 9.95689 1.75839 9.95689Z" fill="#FFF8E0"/>
</g>
<defs>
<clipPath id="clip0_30_1989">
<rect width="18.8652" height="18.8652" fill="white"/>
</clipPath>
</defs>
</svg>
