<svg width="24" height="25" viewBox="0 0 24 25" fill="none" xmlns="http://www.w3.org/2000/svg">
<g clip-path="url(#clip0_4087_508)">
<path d="M7.0301 0.47455C5.7533 0.53479 4.88138 0.73855 4.11914 1.03807C3.33026 1.34551 2.66162 1.75807 1.99634 2.42575C1.33106 3.09343 0.921379 3.76255 0.616099 4.55263C0.320659 5.31655 0.120499 6.18919 0.0640995 7.46671C0.00769946 8.74423 -0.00478054 9.15487 0.00145946 12.4136C0.00769946 15.6723 0.0220995 16.0808 0.0840195 17.361C0.144979 18.6375 0.348019 19.5092 0.647539 20.2717C0.955459 21.0606 1.36754 21.729 2.03546 22.3945C2.70338 23.06 3.37202 23.4687 4.16402 23.7745C4.92722 24.0694 5.8001 24.2706 7.07738 24.3265C8.35466 24.3824 8.76578 24.3954 12.0235 24.3891C15.2813 24.3829 15.6915 24.3685 16.9714 24.3078C18.2513 24.247 19.1184 24.0426 19.8811 23.7445C20.67 23.4358 21.3389 23.0245 22.0039 22.3563C22.669 21.6882 23.0784 21.0186 23.3835 20.228C23.6791 19.4648 23.88 18.5919 23.9355 17.3156C23.9914 16.0347 24.0046 15.6258 23.9983 12.3675C23.9921 9.10927 23.9775 8.70079 23.9167 7.42111C23.856 6.14143 23.6527 5.27239 23.3535 4.50943C23.0451 3.72055 22.6335 3.05263 21.9658 2.38663C21.2981 1.72063 20.628 1.31143 19.8377 1.00711C19.074 0.71167 18.2016 0.51031 16.9243 0.45511C15.6471 0.39991 15.2359 0.38575 11.977 0.39199C8.71802 0.39823 8.31002 0.41215 7.0301 0.47455ZM7.17026 22.1677C6.00026 22.1168 5.36498 21.9224 4.94162 21.7597C4.38098 21.5437 3.98162 21.2826 3.5597 20.8647C3.13778 20.4469 2.87858 20.0461 2.6597 19.4866C2.4953 19.0633 2.2973 18.4287 2.24258 17.2587C2.18306 15.9942 2.17058 15.6145 2.16362 12.4107C2.15666 9.20695 2.1689 8.82775 2.22434 7.56271C2.27426 6.39367 2.46986 5.75767 2.63234 5.33455C2.84834 4.77319 3.1085 4.37455 3.5273 3.95287C3.9461 3.53119 4.3457 3.27151 4.90562 3.05263C5.3285 2.88751 5.96306 2.69119 7.13258 2.63551C8.3981 2.57551 8.7773 2.56351 11.9806 2.55655C15.1839 2.54959 15.564 2.56159 16.83 2.61727C17.9991 2.66815 18.6353 2.86183 19.0579 3.02527C19.6188 3.24127 20.0179 3.50071 20.4396 3.92023C20.8613 4.33975 21.1212 4.73791 21.3401 5.29903C21.5055 5.72071 21.7018 6.35503 21.757 7.52527C21.8172 8.79079 21.8309 9.17023 21.8367 12.3733C21.8424 15.5763 21.8311 15.9567 21.7757 17.2213C21.7246 18.3913 21.5307 19.0268 21.3677 19.4506C21.1517 20.011 20.8913 20.4106 20.4723 20.8321C20.0532 21.2535 19.6541 21.5132 19.0939 21.7321C18.6715 21.8969 18.0363 22.0938 16.8677 22.1494C15.6022 22.209 15.223 22.2214 12.0185 22.2284C8.81402 22.2353 8.43602 22.2224 7.1705 22.1677M16.9529 5.97703C16.9534 6.26186 17.0383 6.54014 17.1969 6.77669C17.3556 7.01325 17.5808 7.19744 17.8442 7.30598C18.1075 7.41451 18.3971 7.44252 18.6764 7.38645C18.9556 7.33038 19.212 7.19276 19.413 6.99099C19.614 6.78922 19.7507 6.53237 19.8058 6.25291C19.8608 5.97345 19.8317 5.68395 19.7222 5.42102C19.6127 5.15808 19.4277 4.93352 19.1906 4.77575C18.9534 4.61797 18.6748 4.53406 18.39 4.53463C18.0082 4.53539 17.6423 4.68777 17.3728 4.95826C17.1033 5.22875 16.9523 5.5952 16.9529 5.97703ZM5.8385 12.4026C5.84522 15.8058 8.60906 18.5583 12.0115 18.5518C15.414 18.5453 18.1685 15.7818 18.162 12.3786C18.1555 8.97535 15.391 6.22207 11.988 6.22879C8.58506 6.23551 5.83202 8.99983 5.8385 12.4026ZM7.99994 12.3982C7.99837 11.6071 8.23144 10.8333 8.66968 10.1746C9.10791 9.5159 9.73162 9.00196 10.4619 8.69776C11.1923 8.39356 11.9964 8.31275 12.7726 8.46556C13.5489 8.61837 14.2624 8.99793 14.8229 9.55624C15.3834 10.1146 15.7658 10.8265 15.9217 11.6022C16.0776 12.3778 15.9999 13.1822 15.6986 13.9138C15.3973 14.6453 14.8859 15.271 14.2289 15.7119C13.572 16.1527 12.7991 16.3888 12.0079 16.3904C11.4826 16.3915 10.9622 16.2891 10.4765 16.0891C9.99076 15.889 9.54918 15.5953 9.17699 15.2245C8.8048 14.8538 8.50929 14.4134 8.30733 13.9285C8.10537 13.4435 8.00091 12.9235 7.99994 12.3982Z" fill="white"/>
</g>
<defs>
<clipPath id="clip0_4087_508">
<rect width="24" height="24" fill="white" transform="translate(0 0.390625)"/>
</clipPath>
</defs>
</svg>
