<svg width="108" height="40" viewBox="0 0 108 40" fill="none" xmlns="http://www.w3.org/2000/svg">
<g clip-path="url(#clip0_4160_211)">
<path d="M0.977051 11.1544C0.977051 6.40881 4.32178 4.0775 7.35743 4.0775C9.72461 4.0775 11.1143 5.38841 11.3203 5.8864H11.397V4.34115H15.3838V17.9702H11.397V16.4249H11.3203C11.1143 16.9229 9.72461 18.2338 7.35743 18.2338C4.32178 18.2338 0.977051 15.9001 0.977051 11.1569M8.17923 14.6136C9.92827 14.6136 11.4976 13.3808 11.4976 11.1544C11.4976 8.9281 9.92827 7.69531 8.17923 7.69531C6.4302 7.69531 4.91118 8.95251 4.91118 11.1544C4.91118 13.3564 6.48052 14.6136 8.17923 14.6136Z" fill="#491474"/>
<path d="M17.2856 4.3387H21.2725V5.88395H21.3492C21.5552 5.38596 22.9448 4.07505 25.312 4.07505C28.3477 4.07505 31.6924 6.4088 31.6924 11.152C31.6924 15.8952 28.3477 18.2289 25.312 18.2289C22.9448 18.2289 21.5552 16.918 21.3492 16.42H21.2725V22.9453H17.2856V4.3387ZM24.4878 14.6136C26.1865 14.6136 27.7559 13.3564 27.7559 11.1544C27.7559 8.9525 26.1865 7.6953 24.4878 7.6953C22.7891 7.6953 21.1695 8.92809 21.1695 11.1544C21.1695 13.3808 22.7388 14.6136 24.4878 14.6136Z" fill="#491474"/>
<path d="M32.3091 11.1544C32.3091 6.51622 35.9102 4.0775 39.4082 4.0775C42.9063 4.0775 46.5074 6.51378 46.5074 11.1544C46.5074 15.7951 42.9063 18.2314 39.4082 18.2314C35.9102 18.2314 32.3091 15.7951 32.3091 11.1544ZM39.4106 14.5599C41.1333 14.5599 42.5757 13.249 42.5757 11.152C42.5757 9.05504 41.1357 7.74413 39.4106 7.74413C37.6856 7.74413 36.2456 9.05504 36.2456 11.152C36.2456 13.249 37.6856 14.5599 39.4106 14.5599Z" fill="#491474"/>
<path d="M46.6128 14.3499L49.7778 13.4857C49.9839 14.14 50.4463 15.0579 51.7066 15.0579C52.4277 15.0579 53.0962 14.6917 53.0962 13.93C53.0962 13.4833 52.8398 13.0659 51.9653 12.7754L50.1636 12.0943C47.9521 11.2814 46.9985 9.81423 46.9985 8.1103C46.9985 5.56904 49.2363 4.07505 51.8599 4.07505C54.4834 4.07505 56.2061 5.51534 56.6709 7.71727L53.5586 8.50333C53.2232 7.45607 52.5547 7.21927 52.0156 7.21927C51.2441 7.21927 50.8584 7.69042 50.8584 8.16156C50.8584 8.6083 51.1148 9.02574 52.0156 9.31379L53.688 9.94361C55.1279 10.4416 57.0327 11.4645 57.0327 13.9276C57.0327 16.6788 54.7422 18.2265 51.7593 18.2265C49.059 18.2265 47.0249 16.9424 46.6152 14.3475" fill="#491474"/>
<path d="M59.3706 13.7738V7.56105H57.3892V4.33627H59.3706V0.852726H63.3574V4.33871H66.1607V7.56349H63.3574V13.1196C63.3574 13.8007 63.7432 14.5355 64.9531 14.5355C65.2622 14.5355 65.7246 14.4818 66.2134 14.3255V17.4185C65.6983 17.9433 64.5674 18.1264 63.6402 18.1264C61.1699 18.1264 59.3706 16.8936 59.3706 13.7763" fill="#491474"/>
<path d="M66.7793 11.1544C66.7793 6.41125 70.124 4.0775 73.1597 4.0775C75.5269 4.0775 76.9165 5.38841 77.1225 5.8864H77.1992V4.34115H81.1861V17.9702H77.1992V16.4249H77.1225C76.9165 16.9229 75.5269 18.2338 73.1597 18.2338C70.124 18.2338 66.7793 15.9001 66.7793 11.1569M73.9839 14.6136C75.7329 14.6136 77.3022 13.3808 77.3022 11.1544C77.3022 8.9281 75.7329 7.69531 73.9839 7.69531C72.2348 7.69531 70.7158 8.95251 70.7158 11.1544C70.7158 13.3564 72.2852 14.6136 73.9839 14.6136Z" fill="#491474"/>
<path d="M24.9888 20.5383H28.9756V22.0836H29.0523C29.2583 21.5856 30.648 20.2746 33.0152 20.2746C36.0508 20.2746 39.3955 22.6084 39.3955 27.3516C39.3955 32.0948 36.0508 34.4285 33.0152 34.4285C30.648 34.4285 29.2583 33.1176 29.0523 32.6196H28.9756V39.1449H24.9888V20.5359V20.5383ZM32.191 30.8132C33.8897 30.8132 35.459 29.556 35.459 27.354C35.459 25.1521 33.8897 23.8949 32.191 23.8949C30.4922 23.8949 28.8726 25.1277 28.8726 27.354C28.8726 29.5804 30.4419 30.8132 32.191 30.8132Z" fill="#491474"/>
<path d="M40.6558 20.5383H44.6426V24.2342C45.0811 22.0323 46.3653 20.2771 48.7852 20.2771C49.0942 20.2771 49.4033 20.3039 49.7364 20.4089V24.2611C49.4273 24.2098 49.1446 24.1829 48.8115 24.1829C46.1616 24.1829 44.645 25.9918 44.645 28.5599V34.1697H40.6582V20.5407L40.6558 20.5383Z" fill="#491474"/>
<path d="M49.9663 27.3784C49.9663 22.7646 53.3349 20.2746 56.7827 20.2746C60.2304 20.2746 64.1646 22.6865 63.3164 28.9237H53.7974C54.3364 30.3908 55.6758 31.1256 57.4488 31.1256C58.6324 31.1256 59.6866 30.8376 60.6641 30.0784L62.4659 31.9922C61.3589 33.4081 59.4566 34.4285 57.0127 34.4285C53.3086 34.4285 49.9639 31.8604 49.9639 27.3784M59.8183 26.0163C59.5356 24.4442 58.1723 23.6825 56.8354 23.6825C55.4985 23.6825 54.1591 24.3905 53.7231 26.0163H59.8183Z" fill="#491474"/>
<path d="M73.0923 26.4606C73.0923 24.7298 72.1675 23.8925 70.9575 23.8925C69.7476 23.8925 68.6934 24.7322 68.6934 26.4606V34.1673H64.7065V20.5383H68.6934V22.2154C69.4146 21.0876 70.6485 20.2746 72.4239 20.2746C73.9932 20.2746 75.3565 20.9557 76.2046 22.4229C77.0288 21.1901 78.4688 20.2746 80.5772 20.2746C83.4068 20.2746 85.4649 22.1104 85.4649 26.3019V34.1649H81.4781V26.4581C81.4781 24.7273 80.5533 23.89 79.3433 23.89C78.0567 23.89 77.0792 24.7298 77.0792 26.4581V34.1649H73.0923V26.4581V26.4606Z" fill="#491474"/>
<path d="M87.3691 15.5583H91.356V19.0956H87.3691V15.5583ZM87.3691 20.5383H91.356V34.1673H87.3691V20.5383Z" fill="#491474"/>
<path d="M92.6191 27.354C92.6191 22.6108 95.9639 20.2771 98.9995 20.2771C101.367 20.2771 102.756 21.588 102.96 22.086H103.037V20.5407H107.024V34.1697H103.037V32.6245H102.96C102.754 33.1225 101.364 34.4334 98.9995 34.4334C95.9639 34.4334 92.6191 32.0996 92.6191 27.3565M99.8213 30.8131C101.57 30.8131 103.14 29.5804 103.14 27.354C103.14 25.1277 101.57 23.8949 99.8213 23.8949C98.0723 23.8949 96.5533 25.1521 96.5533 27.354C96.5533 29.5559 98.1226 30.8131 99.8213 30.8131Z" fill="#491474"/>
</g>
<defs>
<clipPath id="clip0_4160_211">
<rect width="106.047" height="38.2946" fill="#491474" transform="translate(0.977051 0.852715)"/>
</clipPath>
</defs>
</svg>
