<svg width="144" height="72" viewBox="0 0 144 72" fill="none" xmlns="http://www.w3.org/2000/svg">
<g clip-path="url(#clip0_4091_68)">
<path d="M0 14.2908C0 7.96696 4.51736 4.85547 8.61742 4.85547C11.8145 4.85547 13.6912 6.60268 13.9694 7.26762H14.0743V5.20629H19.4605V23.3754H14.0743V21.3141H13.9694C13.6912 21.9767 11.8145 23.7262 8.61742 23.7262C4.51736 23.7239 0 20.6147 0 14.2908ZM9.73023 18.9019C12.0927 18.9019 14.2134 17.2602 14.2134 14.2908C14.2134 11.3215 12.0927 9.67748 9.73023 9.67748C7.36779 9.67748 5.31776 11.3559 5.31776 14.2908C5.31776 17.2258 7.43848 18.9019 9.73023 18.9019Z" fill="white"/>
<path d="M22.0332 5.20629H27.4194V7.26762H27.5243C27.8025 6.60268 29.6792 4.85547 32.8762 4.85547C36.9763 4.85547 41.4937 7.96467 41.4937 14.2908C41.4937 20.617 36.9763 23.7262 32.8762 23.7262C29.6792 23.7262 27.8025 21.979 27.5243 21.3141H27.4194V30.0134H22.0332V5.20629ZM31.7612 18.9019C34.0552 18.9019 36.1736 17.2235 36.1736 14.2908C36.1736 11.3582 34.0529 9.67748 31.7612 9.67748C29.4694 9.67748 27.278 11.3192 27.278 14.2908C27.278 17.2625 29.3987 18.9019 31.7612 18.9019Z" fill="white"/>
<path d="M42.3257 14.2908C42.3257 8.10683 47.1897 4.85547 51.9168 4.85547C56.644 4.85547 61.5079 8.10454 61.5079 14.2908C61.5079 20.4771 56.644 23.7262 51.9168 23.7262C47.1897 23.7262 42.3257 20.4771 42.3257 14.2908ZM51.9168 18.8331C54.245 18.8331 56.1902 17.0859 56.1902 14.2908C56.1902 11.4958 54.245 9.74857 51.9168 9.74857C49.5886 9.74857 47.6434 11.4958 47.6434 14.2908C47.6434 17.0859 49.5886 18.8331 51.9168 18.8331Z" fill="white"/>
<path d="M61.6463 18.5534L65.9197 17.4C66.1979 18.2737 66.8227 19.4958 68.5261 19.4958C69.4998 19.4958 70.4028 19.0074 70.4028 17.9939C70.4028 17.4 70.0562 16.8406 68.8727 16.4554L66.4396 15.5474C63.4501 14.4651 62.1662 12.507 62.1662 10.237C62.1662 6.84802 65.19 4.85547 68.7336 4.85547C72.2773 4.85547 74.6055 6.77694 75.2326 9.71188L71.0277 10.7597C70.5762 9.36106 69.6731 9.04693 68.9434 9.04693C67.9013 9.04693 67.3791 9.67519 67.3791 10.3057C67.3791 10.8996 67.7257 11.4591 68.9434 11.842L71.201 12.6812C73.1461 13.3462 75.7183 14.7082 75.7183 17.9916C75.7183 21.6603 72.6262 23.7216 68.5945 23.7216C64.946 23.7216 62.2004 22.0088 61.644 18.5511" fill="white"/>
<path d="M78.8838 17.7834V9.50133H76.209V5.20439H78.8838V0.556641H84.27V5.20439H88.0577V9.50133H84.27V16.9098C84.27 17.8178 84.7922 18.7968 86.4249 18.7968C86.8422 18.7968 87.467 18.7281 88.1283 18.5171V22.6398C87.4328 23.3391 85.905 23.5822 84.6531 23.5822C81.317 23.5822 78.8838 21.9404 78.8838 17.7811" fill="white"/>
<path d="M93.1682 22.5224C90.7511 21.0848 88.8926 18.3493 88.8926 14.2908C88.8926 7.96696 93.4099 4.85547 97.51 4.85547C100.707 4.85547 102.584 6.60268 102.862 7.26762H102.967V5.20629H108.353V23.3754H102.967V21.3141H102.862C102.584 21.9767 100.707 23.7262 97.51 23.7262C96.0415 23.7262 94.5182 23.3273 93.1682 22.5224ZM98.6228 18.9019C100.985 18.9019 103.106 17.2602 103.106 14.2908C103.106 11.3215 100.985 9.67748 98.6228 9.67748C96.2604 9.67748 94.2103 11.3559 94.2103 14.2908C94.2103 17.2258 96.3311 18.9019 98.6228 18.9019Z" fill="white"/>
<path d="M32.438 26.802H37.8242V28.8633H37.9291C38.2073 28.1984 40.084 26.4512 43.281 26.4512C47.3811 26.4512 51.8984 29.5604 51.8984 35.8865C51.8984 42.2127 47.3811 45.3196 43.281 45.3196C40.084 45.3196 38.2073 43.5724 37.9291 42.9098H37.8242V51.6091H32.438V26.7997V26.802ZM42.1682 40.4976C44.4622 40.4976 46.5807 38.8192 46.5807 35.8865C46.5807 32.9539 44.46 31.2732 42.1682 31.2732C39.8765 31.2732 37.6851 32.9149 37.6851 35.8865C37.6851 38.8582 39.8058 40.4976 42.1682 40.4976Z" fill="white"/>
<path d="M53.5991 26.8036H58.9853V31.7311C59.5759 28.7962 61.3135 26.4551 64.5813 26.4551C64.9986 26.4551 65.4159 26.4895 65.8674 26.6293V31.7655C65.4501 31.6967 65.067 31.66 64.6155 31.66C61.0353 31.66 58.9853 34.0722 58.9853 37.4955V44.9727H53.5991V26.8036Z" fill="white"/>
<path d="M66.1802 35.9209C66.1802 29.7713 70.7317 26.4512 75.3882 26.4512C80.0447 26.4512 85.3624 29.6658 84.2154 37.9823H71.3588C72.0885 39.9381 73.8946 40.9172 76.2935 40.9172C77.892 40.9172 79.3172 40.532 80.6376 39.5185L83.0707 42.0683C81.5771 43.9553 79.0048 45.3173 75.7029 45.3173C70.6998 45.3173 66.1825 41.894 66.1825 35.9186M79.4883 34.1049C79.1052 32.0092 77.2649 30.9957 75.4566 30.9957C73.6483 30.9957 71.8423 31.9381 71.2517 34.1049H79.4883Z" fill="white"/>
<path d="M97.4205 34.6988C97.4205 32.3921 96.1686 31.2755 94.5359 31.2755C92.9032 31.2755 91.478 32.3944 91.478 34.6988V44.9711H86.0918V26.802H91.478V29.0376C92.4517 27.5357 94.1186 26.4512 96.5175 26.4512C98.6383 26.4512 100.478 27.3592 101.626 29.315C102.738 27.6733 104.683 26.4512 107.534 26.4512C111.356 26.4512 114.135 28.8977 114.135 34.4879V44.9711H108.749V34.6988C108.749 32.3921 107.497 31.2755 105.865 31.2755C104.127 31.2755 102.807 32.3944 102.807 34.6988V44.9711H97.4205V34.6988Z" fill="white"/>
<path d="M116.706 20.1621H122.092V24.8787H116.706V20.1621ZM116.706 26.8024H122.092V44.9715H116.706V26.8024Z" fill="white"/>
<path d="M123.795 35.8865C123.795 29.5627 128.313 26.4512 132.413 26.4512C135.61 26.4512 137.487 28.1984 137.765 28.8633H137.87V26.802H143.256V44.9711H137.87V42.9098H137.765C137.487 43.5724 135.61 45.3196 132.413 45.3196C128.313 45.3196 123.795 42.2104 123.795 35.8865ZM133.526 40.4976C135.888 40.4976 138.009 38.8559 138.009 35.8865C138.009 32.9172 135.888 31.2732 133.526 31.2732C131.163 31.2732 129.113 32.9516 129.113 35.8865C129.113 38.8215 131.234 40.4976 133.526 40.4976Z" fill="white"/>
<path d="M12.0173 35.3021C13.9624 44.0657 18.5619 52.1758 25.013 58.3873C42.4531 75.1646 69.7556 75.426 87.8456 59.8227L90.1989 62.1889L93.3481 50.3712L81.5952 53.5378L83.8322 55.7871C82.952 56.624 82.0444 57.4311 81.0981 58.197C76.0311 62.2325 70.0635 65.1193 63.715 66.4905C45.9694 70.5306 26.9878 62.2921 17.4354 46.6865C15.2235 43.1279 13.5246 39.2551 12.3662 35.215C11.8098 33.1835 11.3811 31.113 11.0801 29.0195C11.2625 31.1267 11.5726 33.227 12.0173 35.3044" fill="url(#paint0_linear_4091_68)"/>
</g>
<defs>
<linearGradient id="paint0_linear_4091_68" x1="10.2325" y1="57.3017" x2="109.767" y2="46.1389" gradientUnits="userSpaceOnUse">
<stop stop-color="#2EDB89"/>
<stop offset="1" stop-color="#58DDB7"/>
</linearGradient>
<clipPath id="clip0_4091_68">
<rect width="143.256" height="70.6977" fill="white" transform="translate(0 0.556641)"/>
</clipPath>
</defs>
</svg>
