<svg width="300" height="111" viewBox="0 0 300 111" fill="none" xmlns="http://www.w3.org/2000/svg">
<path d="M3.36912 55.2431C3.36912 26.485 26.6822 3.17186 55.4404 3.17186H244.56C273.318 3.17186 296.631 26.485 296.631 55.2431C296.631 84.0013 273.318 107.314 244.56 107.314H55.4405C26.6823 107.314 3.36912 84.0013 3.36912 55.2431Z" fill="white"/>
<path d="M3.36912 55.2431C3.36912 26.485 26.6822 3.17186 55.4404 3.17186H244.56C273.318 3.17186 296.631 26.485 296.631 55.2431C296.631 84.0013 273.318 107.314 244.56 107.314H55.4405C26.6823 107.314 3.36912 84.0013 3.36912 55.2431Z" stroke="#404040" stroke-width="6.34371"/>
<g clip-path="url(#clip0_4087_418)">
<path d="M91.0812 33.4676C91.3706 36.7401 91.3876 40.1273 91.1229 43.3859C90.4481 51.719 88.029 59.4856 83.9322 66.4735C78.752 75.3067 71.9327 81.0639 66.542 84.5686C61.1497 81.0654 54.3304 75.3082 49.1502 66.4735C45.0549 59.4856 42.6358 51.719 41.9594 43.3859C41.6948 40.1257 41.7118 36.7401 42.0012 33.4676C50.181 30.6764 58.3622 27.8853 66.542 25.0957C74.7201 27.8853 82.9014 30.6764 91.0812 33.4676Z" fill="#404040"/>
<path d="M98.1262 27.693C87.597 24.0999 77.0694 20.5085 66.5418 16.917C56.0126 20.5085 45.485 24.0999 34.9558 27.693C34.0303 33.0337 31.4827 51.6366 42.4746 70.3881C50.3448 83.8113 61.2857 90.7109 66.5418 93.5702C71.7963 90.7109 82.7372 83.8113 90.6073 70.3881C101.601 51.6366 99.0517 33.0337 98.1262 27.693ZM94.9797 43.6982C94.2569 52.6165 91.6629 60.9373 87.2689 68.4299C81.1492 78.8683 72.9323 85.3392 66.5418 89.1211C60.1497 85.3407 51.9328 78.8699 45.8131 68.4299C41.4206 60.9373 38.8267 52.6165 38.1023 43.6982C37.7494 39.3436 37.8624 34.8589 38.4258 30.5986C47.7988 27.4004 57.1703 24.2021 66.5418 21.0054C75.9132 24.2021 85.2832 27.4004 94.6562 30.5986C95.2196 34.8604 95.3326 39.3451 94.9797 43.6982Z" fill="#404040"/>
<path d="M66.542 25.0957V84.5686C61.1497 81.0654 54.3304 75.3082 49.1502 66.4735C45.0549 59.4856 42.6358 51.719 41.9594 43.3859C41.6948 40.1257 41.7118 36.7401 42.0012 33.4676C50.181 30.6764 58.3622 27.8853 66.542 25.0957Z" fill="#999999"/>
<path d="M66.5418 61.5738C73.0329 61.5738 78.295 56.3106 78.295 49.8182C78.295 43.3257 73.0329 38.0625 66.5418 38.0625C60.0507 38.0625 54.7886 43.3257 54.7886 49.8182C54.7886 56.3106 60.0507 61.5738 66.5418 61.5738Z" fill="#2DDB89"/>
<path d="M65.1226 54.4879C64.8502 54.4879 64.5797 54.3841 64.3723 54.1767L60.8565 50.6602C60.4417 50.2453 60.4417 49.5741 60.8565 49.1592C61.2713 48.7443 61.9424 48.7443 62.3572 49.1592L65.1226 51.9252L71.5869 45.4596C72.0017 45.0447 72.6728 45.0447 73.0876 45.4596C73.5024 45.8745 73.5024 46.5457 73.0876 46.9606L65.873 54.1767C65.6656 54.3841 65.3951 54.4879 65.1226 54.4879Z" fill="white"/>
</g>
<path d="M117.234 36.7432V22.1977H122.973C124.076 22.1977 125.016 22.4084 125.793 22.8298C126.569 23.2465 127.161 23.8265 127.568 24.5699C127.98 25.3085 128.186 26.1608 128.186 27.1267C128.186 28.0926 127.978 28.9449 127.561 29.6835C127.144 30.4221 126.541 30.9974 125.75 31.4094C124.964 31.8213 124.012 32.0273 122.895 32.0273H119.237V29.5628H122.398C122.99 29.5628 123.477 29.461 123.861 29.2574C124.249 29.049 124.538 28.7626 124.727 28.398C124.921 28.0287 125.019 27.6049 125.019 27.1267C125.019 26.6437 124.921 26.2223 124.727 25.8625C124.538 25.4979 124.249 25.2162 123.861 25.0173C123.473 24.8137 122.98 24.7119 122.384 24.7119H120.31V36.7432H117.234ZM131.011 36.7432H127.716L132.737 22.1977H136.7L141.714 36.7432H138.419L134.775 25.5216H134.662L131.011 36.7432ZM130.805 31.0258H138.589V33.4264H130.805V31.0258ZM143.465 36.7432V22.1977H149.204C150.302 22.1977 151.24 22.3942 152.016 22.7872C152.797 23.1755 153.391 23.7271 153.799 24.442C154.211 25.1523 154.417 25.988 154.417 26.9491C154.417 27.915 154.208 28.746 153.792 29.442C153.375 30.1333 152.771 30.6636 151.981 31.0329C151.195 31.4023 150.243 31.5869 149.125 31.5869H145.283V29.1153H148.628C149.215 29.1153 149.703 29.0348 150.091 28.8738C150.48 28.7129 150.768 28.4714 150.958 28.1494C151.152 27.8274 151.249 27.4273 151.249 26.9491C151.249 26.4662 151.152 26.059 150.958 25.7275C150.768 25.3961 150.477 25.1452 150.084 24.9747C149.696 24.7995 149.206 24.7119 148.614 24.7119H146.54V36.7432H143.465ZM151.32 30.1238L154.935 36.7432H151.54L148.003 30.1238H151.32ZM169.424 27.29H166.313C166.256 26.8876 166.14 26.5301 165.965 26.2176C165.79 25.9004 165.565 25.6305 165.29 25.4079C165.016 25.1854 164.698 25.0149 164.338 24.8966C163.983 24.7782 163.597 24.719 163.181 24.719C162.428 24.719 161.772 24.906 161.213 25.2801C160.655 25.6494 160.222 26.1892 159.914 26.8994C159.606 27.6049 159.452 28.4619 159.452 29.4704C159.452 30.5074 159.606 31.3786 159.914 32.0841C160.226 32.7896 160.662 33.3222 161.221 33.6821C161.779 34.0419 162.426 34.2219 163.159 34.2219C163.571 34.2219 163.953 34.1674 164.303 34.0585C164.658 33.9496 164.973 33.791 165.248 33.5827C165.522 33.3696 165.749 33.1115 165.929 32.8085C166.114 32.5055 166.242 32.1598 166.313 31.7716L169.424 31.7858C169.343 32.4534 169.142 33.0973 168.82 33.7176C168.503 34.3331 168.074 34.8847 167.534 35.3724C166.999 35.8554 166.36 36.2389 165.617 36.523C164.878 36.8023 164.043 36.942 163.11 36.942C161.812 36.942 160.652 36.6485 159.63 36.0613C158.612 35.4742 157.807 34.6243 157.215 33.5116C156.628 32.3989 156.334 31.0519 156.334 29.4704C156.334 27.8843 156.633 26.5348 157.229 25.4221C157.826 24.3095 158.635 23.4619 159.658 22.8795C160.681 22.2924 161.831 21.9988 163.11 21.9988C163.953 21.9988 164.734 22.1172 165.454 22.354C166.178 22.5907 166.82 22.9363 167.378 23.3909C167.937 23.8407 168.391 24.3923 168.742 25.0457C169.097 25.6991 169.324 26.4472 169.424 27.29ZM171.629 36.7432V22.1977H181.43V24.7332H174.704V28.1991H180.926V30.7346H174.704V34.2077H181.458V36.7432H171.629ZM186.95 22.1977V36.7432H183.875V22.1977H186.95ZM189.481 36.7432V22.1977H195.219C196.318 22.1977 197.255 22.3942 198.032 22.7872C198.813 23.1755 199.407 23.7271 199.814 24.442C200.226 25.1523 200.432 25.988 200.432 26.9491C200.432 27.915 200.224 28.746 199.807 29.442C199.391 30.1333 198.787 30.6636 197.996 31.0329C197.21 31.4023 196.258 31.5869 195.141 31.5869H191.299V29.1153H194.644C195.231 29.1153 195.719 29.0348 196.107 28.8738C196.495 28.7129 196.784 28.4714 196.973 28.1494C197.168 27.8274 197.265 27.4273 197.265 26.9491C197.265 26.4662 197.168 26.059 196.973 25.7275C196.784 25.3961 196.493 25.1452 196.1 24.9747C195.712 24.7995 195.222 24.7119 194.63 24.7119H192.556V36.7432H189.481ZM197.336 30.1238L200.951 36.7432H197.556L194.019 30.1238H197.336ZM215.972 29.4704C215.972 31.0566 215.671 32.406 215.07 33.5187C214.473 34.6314 213.659 35.4813 212.627 36.0684C211.599 36.6508 210.444 36.942 209.161 36.942C207.868 36.942 206.708 36.6485 205.681 36.0613C204.653 35.4742 203.841 34.6243 203.245 33.5116C202.648 32.3989 202.35 31.0519 202.35 29.4704C202.35 27.8843 202.648 26.5348 203.245 25.4221C203.841 24.3095 204.653 23.4619 205.681 22.8795C206.708 22.2924 207.868 21.9988 209.161 21.9988C210.444 21.9988 211.599 22.2924 212.627 22.8795C213.659 23.4619 214.473 24.3095 215.07 25.4221C215.671 26.5348 215.972 27.8843 215.972 29.4704ZM212.854 29.4704C212.854 28.443 212.7 27.5765 212.392 26.871C212.089 26.1655 211.661 25.6305 211.107 25.2659C210.553 24.9013 209.904 24.719 209.161 24.719C208.418 24.719 207.769 24.9013 207.215 25.2659C206.661 25.6305 206.23 26.1655 205.922 26.871C205.619 27.5765 205.468 28.443 205.468 29.4704C205.468 30.4979 205.619 31.3644 205.922 32.0699C206.23 32.7754 206.661 33.3104 207.215 33.675C207.769 34.0396 208.418 34.2219 209.161 34.2219C209.904 34.2219 210.553 34.0396 211.107 33.675C211.661 33.3104 212.089 32.7754 212.392 32.0699C212.7 31.3644 212.854 30.4979 212.854 29.4704ZM226.141 26.3809C226.084 25.808 225.84 25.363 225.409 25.0457C224.978 24.7285 224.394 24.5699 223.655 24.5699C223.153 24.5699 222.729 24.6409 222.384 24.7829C222.038 24.9202 221.773 25.112 221.588 25.3582C221.408 25.6044 221.318 25.8838 221.318 26.1963C221.309 26.4567 221.363 26.684 221.482 26.8781C221.605 27.0722 221.773 27.2403 221.986 27.3824C222.199 27.5197 222.445 27.6404 222.724 27.7446C223.004 27.844 223.302 27.9292 223.619 28.0003L224.926 28.3128C225.561 28.4548 226.143 28.6442 226.673 28.8809C227.204 29.1177 227.663 29.4089 228.051 29.7545C228.439 30.1002 228.74 30.5074 228.953 30.9761C229.171 31.4449 229.282 31.9823 229.287 32.5883C229.282 33.4785 229.055 34.2503 228.605 34.9037C228.16 35.5523 227.516 36.0566 226.673 36.4165C225.835 36.7716 224.824 36.9491 223.641 36.9491C222.466 36.9491 221.444 36.7692 220.572 36.4094C219.706 36.0495 219.029 35.5168 218.541 34.8113C218.058 34.1011 217.805 33.2228 217.781 32.1764H220.757C220.79 32.6641 220.93 33.0713 221.176 33.398C221.427 33.72 221.761 33.9638 222.178 34.1295C222.599 34.2905 223.075 34.371 223.605 34.371C224.126 34.371 224.578 34.2952 224.962 34.1437C225.35 33.9922 225.651 33.7815 225.864 33.5116C226.077 33.2417 226.183 32.9316 226.183 32.5812C226.183 32.2545 226.086 31.9799 225.892 31.7574C225.703 31.5348 225.423 31.3454 225.054 31.1892C224.689 31.0329 224.242 30.8909 223.712 30.7631L222.128 30.3653C220.902 30.067 219.933 29.6006 219.223 28.9662C218.513 28.3317 218.16 27.4771 218.165 26.4023C218.16 25.5216 218.394 24.7522 218.868 24.094C219.346 23.4359 220.002 22.9221 220.835 22.5528C221.669 22.1835 222.616 21.9988 223.676 21.9988C224.756 21.9988 225.698 22.1835 226.503 22.5528C227.313 22.9221 227.942 23.4359 228.392 24.094C228.842 24.7522 229.074 25.5145 229.088 26.3809H226.141ZM130.068 51.29H126.957C126.901 50.8876 126.785 50.5301 126.609 50.2176C126.434 49.9004 126.209 49.6305 125.935 49.4079C125.66 49.1854 125.343 49.0149 124.983 48.8966C124.628 48.7782 124.242 48.719 123.825 48.719C123.072 48.719 122.417 48.906 121.858 49.2801C121.299 49.6494 120.866 50.1892 120.558 50.8994C120.251 51.6049 120.097 52.4619 120.097 53.4704C120.097 54.5074 120.251 55.3786 120.558 56.0841C120.871 56.7896 121.306 57.3222 121.865 57.6821C122.424 58.0419 123.07 58.2219 123.804 58.2219C124.216 58.2219 124.597 58.1674 124.947 58.0585C125.303 57.9496 125.617 57.791 125.892 57.5827C126.167 57.3696 126.394 57.1115 126.574 56.8085C126.759 56.5055 126.886 56.1598 126.957 55.7716L130.068 55.7858C129.988 56.4534 129.787 57.0973 129.465 57.7176C129.147 58.3331 128.719 58.8847 128.179 59.3724C127.644 59.8554 127.005 60.2389 126.261 60.523C125.523 60.8023 124.687 60.942 123.754 60.942C122.457 60.942 121.297 60.6485 120.274 60.0613C119.256 59.4742 118.451 58.6243 117.859 57.5116C117.272 56.3989 116.979 55.0519 116.979 53.4704C116.979 51.8843 117.277 50.5348 117.874 49.4221C118.47 48.3095 119.28 47.4619 120.303 46.8795C121.325 46.2924 122.476 45.9988 123.754 45.9988C124.597 45.9988 125.378 46.1172 126.098 46.354C126.822 46.5907 127.464 46.9363 128.023 47.3909C128.581 47.8407 129.036 48.3923 129.386 49.0457C129.742 49.6991 129.969 50.4472 130.068 51.29ZM132.273 60.7432V46.1977H142.075V48.7332H135.349V52.1991H141.57V54.7346H135.349V58.2077H142.103V60.7432H132.273ZM144.52 60.7432V46.1977H150.258C151.357 46.1977 152.294 46.3942 153.071 46.7872C153.852 47.1755 154.446 47.7271 154.853 48.442C155.265 49.1523 155.471 49.988 155.471 50.9491C155.471 51.915 155.263 52.746 154.846 53.442C154.43 54.1333 153.826 54.6636 153.035 55.0329C152.249 55.4023 151.298 55.5869 150.18 55.5869H146.338V53.1153H149.683C150.27 53.1153 150.758 53.0348 151.146 52.8738C151.534 52.7129 151.823 52.4714 152.012 52.1494C152.207 51.8274 152.304 51.4273 152.304 50.9491C152.304 50.4662 152.207 50.059 152.012 49.7275C151.823 49.3961 151.532 49.1452 151.139 48.9747C150.751 48.7995 150.261 48.7119 149.669 48.7119H147.595V60.7432H144.52ZM152.375 54.1238L155.99 60.7432H152.595L149.058 54.1238H152.375ZM157.091 48.7332V46.1977H169.037V48.7332H164.583V60.7432H161.544V48.7332H157.091ZM174.079 46.1977V60.7432H171.004V46.1977H174.079ZM176.609 60.7432V46.1977H186.24V48.7332H179.685V52.1991H185.601V54.7346H179.685V60.7432H176.609ZM191.384 46.1977V60.7432H188.309V46.1977H191.384ZM206.748 51.29H203.637C203.58 50.8876 203.464 50.5301 203.289 50.2176C203.114 49.9004 202.889 49.6305 202.614 49.4079C202.34 49.1854 202.023 49.0149 201.663 48.8966C201.308 48.7782 200.922 48.719 200.505 48.719C199.752 48.719 199.096 48.906 198.538 49.2801C197.979 49.6494 197.546 50.1892 197.238 50.8994C196.93 51.6049 196.776 52.4619 196.776 53.4704C196.776 54.5074 196.93 55.3786 197.238 56.0841C197.55 56.7896 197.986 57.3222 198.545 57.6821C199.104 58.0419 199.75 58.2219 200.484 58.2219C200.896 58.2219 201.277 58.1674 201.627 58.0585C201.982 57.9496 202.297 57.791 202.572 57.5827C202.846 57.3696 203.074 57.1115 203.254 56.8085C203.438 56.5055 203.566 56.1598 203.637 55.7716L206.748 55.7858C206.667 56.4534 206.466 57.0973 206.144 57.7176C205.827 58.3331 205.398 58.8847 204.859 59.3724C204.324 59.8554 203.684 60.2389 202.941 60.523C202.202 60.8023 201.367 60.942 200.434 60.942C199.137 60.942 197.977 60.6485 196.954 60.0613C195.936 59.4742 195.131 58.6243 194.539 57.5116C193.952 56.3989 193.658 55.0519 193.658 53.4704C193.658 51.8843 193.957 50.5348 194.553 49.4221C195.15 48.3095 195.96 47.4619 196.982 46.8795C198.005 46.2924 199.156 45.9988 200.434 45.9988C201.277 45.9988 202.058 46.1172 202.778 46.354C203.502 46.5907 204.144 46.9363 204.702 47.3909C205.261 47.8407 205.716 48.3923 206.066 49.0457C206.421 49.6991 206.648 50.4472 206.748 51.29ZM211.187 60.7432H207.891L212.913 46.1977H216.876L221.89 60.7432H218.595L214.951 49.5216H214.837L211.187 60.7432ZM210.981 55.0258H218.765V57.4264H210.981V55.0258ZM228.797 60.7432H223.641V46.1977H228.84C230.303 46.1977 231.562 46.4889 232.618 47.0713C233.674 47.6489 234.486 48.4799 235.054 49.5642C235.627 50.6485 235.913 51.9458 235.913 53.4562C235.913 54.9714 235.627 56.2735 235.054 57.3625C234.486 58.4515 233.669 59.2872 232.604 59.8696C231.543 60.452 230.274 60.7432 228.797 60.7432ZM226.716 58.1082H228.669C229.578 58.1082 230.343 57.9472 230.963 57.6253C231.588 57.2986 232.057 56.7943 232.369 56.1125C232.687 55.4259 232.845 54.5405 232.845 53.4562C232.845 52.3814 232.687 51.5031 232.369 50.8213C232.057 50.1395 231.59 49.6376 230.97 49.3156C230.35 48.9936 229.585 48.8327 228.676 48.8327H226.716V58.1082ZM251.558 53.4704C251.558 55.0566 251.257 56.406 250.656 57.5187C250.059 58.6314 249.245 59.4813 248.213 60.0684C247.185 60.6508 246.03 60.942 244.747 60.942C243.454 60.942 242.294 60.6485 241.267 60.0613C240.239 59.4742 239.427 58.6243 238.831 57.5116C238.234 56.3989 237.936 55.0519 237.936 53.4704C237.936 51.8843 238.234 50.5348 238.831 49.4221C239.427 48.3095 240.239 47.4619 241.267 46.8795C242.294 46.2924 243.454 45.9988 244.747 45.9988C246.03 45.9988 247.185 46.2924 248.213 46.8795C249.245 47.4619 250.059 48.3095 250.656 49.4221C251.257 50.5348 251.558 51.8843 251.558 53.4704ZM248.44 53.4704C248.44 52.443 248.286 51.5765 247.978 50.871C247.675 50.1655 247.247 49.6305 246.693 49.2659C246.139 48.9013 245.49 48.719 244.747 48.719C244.003 48.719 243.355 48.9013 242.801 49.2659C242.247 49.6305 241.816 50.1655 241.508 50.871C241.205 51.5765 241.054 52.443 241.054 53.4704C241.054 54.4979 241.205 55.3644 241.508 56.0699C241.816 56.7754 242.247 57.3104 242.801 57.675C243.355 58.0396 244.003 58.2219 244.747 58.2219C245.49 58.2219 246.139 58.0396 246.693 57.675C247.247 57.3104 247.675 56.7754 247.978 56.0699C248.286 55.3644 248.44 54.4979 248.44 53.4704ZM261.727 50.3809C261.67 49.808 261.426 49.363 260.995 49.0457C260.564 48.7285 259.979 48.5699 259.241 48.5699C258.739 48.5699 258.315 48.6409 257.97 48.7829C257.624 48.9202 257.359 49.112 257.174 49.3582C256.994 49.6044 256.904 49.8838 256.904 50.1963C256.895 50.4567 256.949 50.684 257.068 50.8781C257.191 51.0722 257.359 51.2403 257.572 51.3824C257.785 51.5197 258.031 51.6404 258.31 51.7446C258.59 51.844 258.888 51.9292 259.205 52.0003L260.512 52.3128C261.147 52.4548 261.729 52.6442 262.259 52.8809C262.79 53.1177 263.249 53.4089 263.637 53.7545C264.025 54.1002 264.326 54.5074 264.539 54.9761C264.757 55.4449 264.868 55.9823 264.873 56.5883C264.868 57.4785 264.641 58.2503 264.191 58.9037C263.746 59.5523 263.102 60.0566 262.259 60.4165C261.421 60.7716 260.41 60.9491 259.227 60.9491C258.052 60.9491 257.03 60.7692 256.158 60.4094C255.292 60.0495 254.615 59.5168 254.127 58.8113C253.644 58.1011 253.391 57.2228 253.367 56.1764H256.343C256.376 56.6641 256.516 57.0713 256.762 57.398C257.013 57.72 257.347 57.9638 257.764 58.1295C258.185 58.2905 258.661 58.371 259.191 58.371C259.712 58.371 260.164 58.2952 260.548 58.1437C260.936 57.9922 261.237 57.7815 261.45 57.5116C261.663 57.2417 261.769 56.9316 261.769 56.5812C261.769 56.2545 261.672 55.9799 261.478 55.7574C261.289 55.5348 261.009 55.3454 260.64 55.1892C260.275 55.0329 259.828 54.8909 259.298 54.7631L257.714 54.3653C256.487 54.067 255.519 53.6006 254.809 52.9662C254.099 52.3317 253.746 51.4771 253.751 50.4023C253.746 49.5216 253.98 48.7522 254.454 48.094C254.932 47.4359 255.588 46.9221 256.421 46.5528C257.255 46.1835 258.202 45.9988 259.262 45.9988C260.342 45.9988 261.284 46.1835 262.089 46.5528C262.898 46.9221 263.528 47.4359 263.978 48.094C264.428 48.7522 264.66 49.5145 264.674 50.3809H261.727Z" fill="#404040"/>
<path d="M117.118 88.7432V77.1068H119.226V86.9761H124.351V88.7432H117.118ZM129.953 88.9136C129.078 88.9136 128.322 88.7318 127.686 88.3682C127.054 88.0007 126.567 87.4818 126.226 86.8113C125.885 86.1371 125.715 85.3435 125.715 84.4307C125.715 83.5329 125.885 82.7451 126.226 82.067C126.571 81.3852 127.052 80.8549 127.669 80.4761C128.287 80.0935 129.012 79.9023 129.845 79.9023C130.383 79.9023 130.891 79.9894 131.368 80.1636C131.849 80.3341 132.273 80.5992 132.641 80.9591C133.012 81.3189 133.304 81.7773 133.516 82.3341C133.728 82.8871 133.834 83.5462 133.834 84.3113V84.942H126.68V83.5557H131.862C131.858 83.1617 131.773 82.8113 131.607 82.5045C131.44 82.1939 131.207 81.9496 130.908 81.7716C130.612 81.5935 130.268 81.5045 129.874 81.5045C129.453 81.5045 129.084 81.6068 128.766 81.8113C128.447 82.0121 128.199 82.2773 128.021 82.6068C127.847 82.9326 127.758 83.2905 127.754 83.6807V84.8909C127.754 85.3985 127.847 85.8341 128.033 86.1977C128.218 86.5576 128.478 86.8341 128.811 87.0273C129.144 87.2166 129.535 87.3113 129.982 87.3113C130.281 87.3113 130.552 87.2697 130.794 87.1863C131.037 87.0992 131.247 86.9723 131.425 86.8057C131.603 86.639 131.737 86.4326 131.828 86.1863L133.749 86.4023C133.627 86.9098 133.396 87.353 133.055 87.7318C132.718 88.1068 132.287 88.3985 131.76 88.6068C131.233 88.8113 130.631 88.9136 129.953 88.9136ZM135.574 88.7432V80.0159H137.631V88.7432H135.574ZM136.608 78.7773C136.282 78.7773 136.002 78.6693 135.767 78.4534C135.532 78.2337 135.415 77.9704 135.415 77.6636C135.415 77.353 135.532 77.0898 135.767 76.8738C136.002 76.6541 136.282 76.5443 136.608 76.5443C136.938 76.5443 137.218 76.6541 137.449 76.8738C137.684 77.0898 137.801 77.353 137.801 77.6636C137.801 77.9704 137.684 78.2337 137.449 78.4534C137.218 78.6693 136.938 78.7773 136.608 78.7773ZM148.425 77.1068V88.7432H146.317V79.1579H146.249L143.527 80.8966V78.9648L146.419 77.1068H148.425ZM151.169 86.5841V84.9079L156.107 77.1068H157.504V79.4932H156.652L153.328 84.7602V84.8511H160.22V86.5841H151.169ZM156.72 88.7432V86.0727L156.743 85.3227V77.1068H158.732V88.7432H156.72ZM162.997 88.8682C162.653 88.8682 162.357 88.747 162.111 88.5045C161.865 88.2621 161.743 87.9666 161.747 87.6182C161.743 87.2773 161.865 86.9856 162.111 86.7432C162.357 86.5007 162.653 86.3795 162.997 86.3795C163.331 86.3795 163.62 86.5007 163.867 86.7432C164.117 86.9856 164.243 87.2773 164.247 87.6182C164.243 87.8492 164.183 88.0595 164.065 88.2488C163.952 88.4382 163.8 88.5898 163.611 88.7034C163.425 88.8132 163.221 88.8682 162.997 88.8682ZM166.399 88.7432L171.348 78.9477V78.8682H165.604V77.1068H173.53V78.9079L168.587 88.7432H166.399ZM179.247 76.9477C179.804 76.9515 180.346 77.05 180.872 77.2432C181.403 77.4326 181.88 77.7432 182.304 78.175C182.728 78.603 183.065 79.1769 183.315 79.8966C183.565 80.6163 183.69 81.5064 183.69 82.567C183.694 83.567 183.588 84.461 183.372 85.2488C183.16 86.0329 182.855 86.6958 182.457 87.2375C182.06 87.7791 181.581 88.192 181.02 88.4761C180.459 88.7602 179.829 88.9023 179.128 88.9023C178.393 88.9023 177.742 88.7583 177.173 88.4704C176.609 88.1826 176.153 87.7886 175.804 87.2886C175.456 86.7886 175.242 86.2166 175.162 85.5727H177.236C177.342 86.0348 177.558 86.4023 177.884 86.675C178.213 86.9439 178.628 87.0784 179.128 87.0784C179.935 87.0784 180.556 86.728 180.992 86.0273C181.427 85.3265 181.645 84.353 181.645 83.1068H181.565C181.38 83.4401 181.139 83.728 180.844 83.9704C180.548 84.2091 180.213 84.3928 179.838 84.5216C179.467 84.6504 179.073 84.7148 178.656 84.7148C177.974 84.7148 177.361 84.5519 176.815 84.2261C176.274 83.9004 175.844 83.4534 175.526 82.8852C175.211 82.317 175.052 81.6674 175.048 80.9363C175.048 80.1788 175.223 79.4988 175.571 78.8966C175.923 78.2905 176.414 77.8132 177.043 77.4648C177.671 77.1125 178.406 76.9401 179.247 76.9477ZM179.253 78.6523C178.844 78.6523 178.474 78.7526 178.145 78.9534C177.819 79.1504 177.562 79.4193 177.372 79.7602C177.187 80.0973 177.094 80.4742 177.094 80.8909C177.098 81.3038 177.19 81.6788 177.372 82.0159C177.558 82.353 177.81 82.6201 178.128 82.817C178.45 83.014 178.817 83.1125 179.23 83.1125C179.537 83.1125 179.823 83.0538 180.088 82.9363C180.353 82.8189 180.584 82.656 180.781 82.4477C180.982 82.2356 181.137 81.9951 181.247 81.7261C181.361 81.4572 181.416 81.1731 181.412 80.8738C181.412 80.4761 181.317 80.1087 181.128 79.7716C180.942 79.4345 180.687 79.1636 180.361 78.9591C180.039 78.7545 179.67 78.6523 179.253 78.6523ZM189.884 88.9648C188.948 88.9648 188.145 88.728 187.474 88.2545C186.808 87.7773 186.295 87.0898 185.935 86.192C185.579 85.2905 185.401 84.2053 185.401 82.9363C185.404 81.6674 185.584 80.5879 185.94 79.6977C186.3 78.8038 186.813 78.122 187.48 77.6523C188.151 77.1826 188.952 76.9477 189.884 76.9477C190.815 76.9477 191.617 77.1826 192.287 77.6523C192.957 78.122 193.471 78.8038 193.827 79.6977C194.187 80.5916 194.367 81.6712 194.367 82.9363C194.367 84.2091 194.187 85.2962 193.827 86.1977C193.471 87.0954 192.957 87.781 192.287 88.2545C191.62 88.728 190.819 88.9648 189.884 88.9648ZM189.884 87.1863C190.611 87.1863 191.185 86.8284 191.605 86.1125C192.029 85.3928 192.242 84.3341 192.242 82.9363C192.242 82.0121 192.145 81.2356 191.952 80.6068C191.759 79.978 191.486 79.5045 191.134 79.1863C190.781 78.8644 190.365 78.7034 189.884 78.7034C189.16 78.7034 188.588 79.0632 188.168 79.7829C187.747 80.4988 187.535 81.55 187.531 82.9363C187.528 83.8644 187.62 84.6447 187.81 85.2773C188.003 85.9098 188.276 86.3871 188.628 86.7091C188.98 87.0273 189.399 87.1863 189.884 87.1863ZM201.027 76.5613L197.277 90.4932H195.476L199.226 76.5613H201.027ZM202.317 88.7432V87.2204L206.357 83.2602C206.743 82.8701 207.065 82.5235 207.322 82.2204C207.58 81.9174 207.773 81.6238 207.902 81.3398C208.031 81.0557 208.095 80.7526 208.095 80.4307C208.095 80.0632 208.012 79.7488 207.845 79.4875C207.679 79.2223 207.449 79.0178 207.158 78.8738C206.866 78.7299 206.535 78.6579 206.163 78.6579C205.781 78.6579 205.446 78.7375 205.158 78.8966C204.87 79.0519 204.646 79.2735 204.487 79.5613C204.332 79.8492 204.254 80.192 204.254 80.5898H202.249C202.249 79.8511 202.417 79.2091 202.754 78.6636C203.091 78.1182 203.555 77.6958 204.146 77.3966C204.741 77.0973 205.423 76.9477 206.192 76.9477C206.972 76.9477 207.658 77.0935 208.249 77.3852C208.84 77.6769 209.298 78.0765 209.624 78.5841C209.953 79.0916 210.118 79.6712 210.118 80.3227C210.118 80.7583 210.035 81.1863 209.868 81.6068C209.701 82.0273 209.408 82.4932 208.987 83.0045C208.571 83.5159 207.985 84.1352 207.232 84.8625L205.226 86.9023V86.9818H210.294V88.7432H202.317ZM216.555 88.9648C215.62 88.9648 214.817 88.728 214.146 88.2545C213.48 87.7773 212.966 87.0898 212.607 86.192C212.251 85.2905 212.072 84.2053 212.072 82.9363C212.076 81.6674 212.256 80.5879 212.612 79.6977C212.972 78.8038 213.485 78.122 214.152 77.6523C214.822 77.1826 215.624 76.9477 216.555 76.9477C217.487 76.9477 218.288 77.1826 218.959 77.6523C219.629 78.122 220.143 78.8038 220.499 79.6977C220.858 80.5916 221.038 81.6712 221.038 82.9363C221.038 84.2091 220.858 85.2962 220.499 86.1977C220.143 87.0954 219.629 87.781 218.959 88.2545C218.292 88.728 217.491 88.9648 216.555 88.9648ZM216.555 87.1863C217.283 87.1863 217.857 86.8284 218.277 86.1125C218.701 85.3928 218.913 84.3341 218.913 82.9363C218.913 82.0121 218.817 81.2356 218.624 80.6068C218.43 79.978 218.158 79.5045 217.805 79.1863C217.453 78.8644 217.037 78.7034 216.555 78.7034C215.832 78.7034 215.26 79.0632 214.84 79.7829C214.419 80.4988 214.207 81.55 214.203 82.9363C214.199 83.8644 214.292 84.6447 214.482 85.2773C214.675 85.9098 214.947 86.3871 215.3 86.7091C215.652 87.0273 216.071 87.1863 216.555 87.1863ZM222.926 88.7432V87.2204L226.966 83.2602C227.352 82.8701 227.674 82.5235 227.932 82.2204C228.189 81.9174 228.383 81.6238 228.511 81.3398C228.64 81.0557 228.705 80.7526 228.705 80.4307C228.705 80.0632 228.621 79.7488 228.455 79.4875C228.288 79.2223 228.059 79.0178 227.767 78.8738C227.475 78.7299 227.144 78.6579 226.773 78.6579C226.39 78.6579 226.055 78.7375 225.767 78.8966C225.479 79.0519 225.256 79.2735 225.097 79.5613C224.941 79.8492 224.864 80.192 224.864 80.5898H222.858C222.858 79.8511 223.027 79.2091 223.364 78.6636C223.701 78.1182 224.165 77.6958 224.756 77.3966C225.35 77.0973 226.032 76.9477 226.801 76.9477C227.581 76.9477 228.267 77.0935 228.858 77.3852C229.449 77.6769 229.907 78.0765 230.233 78.5841C230.563 79.0916 230.727 79.6712 230.727 80.3227C230.727 80.7583 230.644 81.1863 230.477 81.6068C230.311 82.0273 230.017 82.4932 229.597 83.0045C229.18 83.5159 228.595 84.1352 227.841 84.8625L225.835 86.9023V86.9818H230.903V88.7432H222.926ZM237.04 88.9023C236.222 88.9023 235.494 88.7621 234.858 88.4818C234.225 88.2015 233.725 87.8113 233.358 87.3113C232.991 86.8113 232.795 86.2337 232.773 85.5784H234.909C234.928 85.8928 235.032 86.1674 235.222 86.4023C235.411 86.6333 235.663 86.8132 235.977 86.942C236.292 87.0708 236.644 87.1352 237.034 87.1352C237.451 87.1352 237.82 87.0632 238.142 86.9193C238.464 86.7716 238.716 86.567 238.898 86.3057C239.08 86.0443 239.169 85.7432 239.165 85.4023C239.169 85.05 239.078 84.7394 238.892 84.4704C238.706 84.2015 238.438 83.9913 238.085 83.8398C237.737 83.6882 237.316 83.6125 236.824 83.6125H235.795V81.9875H236.824C237.229 81.9875 237.583 81.9174 237.886 81.7773C238.193 81.6371 238.434 81.4401 238.608 81.1863C238.782 80.9288 238.867 80.6314 238.864 80.2943C238.867 79.9648 238.794 79.6788 238.642 79.4363C238.494 79.1901 238.284 78.9988 238.011 78.8625C237.742 78.7261 237.426 78.6579 237.063 78.6579C236.706 78.6579 236.377 78.7223 236.074 78.8511C235.771 78.9799 235.527 79.1636 235.341 79.4023C235.155 79.6371 235.057 79.9174 235.045 80.2432H233.017C233.032 79.5916 233.22 79.0197 233.58 78.5273C233.943 78.031 234.428 77.6447 235.034 77.3682C235.64 77.0879 236.32 76.9477 237.074 76.9477C237.85 76.9477 238.525 77.0935 239.097 77.3852C239.672 77.6731 240.117 78.0613 240.432 78.55C240.746 79.0386 240.903 79.5784 240.903 80.1693C240.907 80.8246 240.714 81.3738 240.324 81.817C239.938 82.2602 239.43 82.55 238.801 82.6863V82.7773C239.619 82.8909 240.246 83.1939 240.682 83.6863C241.121 84.175 241.339 84.7829 241.335 85.5102C241.335 86.1617 241.15 86.7451 240.778 87.2602C240.411 87.7716 239.903 88.1731 239.256 88.4648C238.612 88.7564 237.873 88.9023 237.04 88.9023Z" fill="#404040"/>
<defs>
<clipPath id="clip0_4087_418">
<rect width="65.023" height="76.6532" fill="white" transform="translate(34.0303 16.917)"/>
</clipPath>
</defs>
</svg>
