<svg width="19" height="22" viewBox="0 0 19 22" fill="none" xmlns="http://www.w3.org/2000/svg">
<g clip-path="url(#clip0_30_1997)">
<path d="M8.28193 0.260844L1.42186 3.55355C0.550414 3.97183 0 4.8269 0 5.76224V10.5068C0 15.0857 2.85711 18.5631 8.41109 20.8691C9.0628 21.1397 9.62233 21.2184 10.7848 20.7286C16.1228 18.4211 18.8647 14.9911 18.8647 10.5068V5.76224C18.8647 4.8269 18.3143 3.97183 17.4428 3.55355L10.5833 0.260844C9.85921 -0.086948 9.00653 -0.086948 8.28247 0.260844H8.28193ZM9.81634 1.7333L16.6764 5.02601C16.9669 5.16543 17.1502 5.45046 17.1502 5.76224V10.5068C17.1502 14.2852 14.8462 17.1679 10.087 19.2253C9.61054 19.4486 9.30933 19.4486 9.09228 19.358C4.12087 17.2939 1.71502 14.3665 1.71502 10.5068V5.76224C1.71502 5.45046 1.89831 5.16543 2.18879 5.02601L9.04887 1.7333C9.29004 1.61754 9.57463 1.61754 9.8158 1.7333H9.81634Z" fill="#FFF8E0"/>
<path d="M9.42938 4.10556C9.75416 4.10556 10.0757 4.16369 10.378 4.27842L13.987 5.95462C14.8204 6.34357 15.3676 7.13022 15.4293 8.00999L15.4352 10.5068C15.4352 13.2474 13.7319 15.3476 10.4814 16.7413C10.207 16.8591 9.70003 16.9559 9.43795 16.9559C9.43795 16.7557 9.43688 16.2068 9.4342 15.3095C10.557 15.2143 13.569 13.4157 13.7159 10.7013C13.7196 9.41247 13.7196 8.45553 13.7196 8.17514C13.7196 7.89474 13.5717 7.63698 13.331 7.48624C11.2125 6.38833 9.9128 5.81005 9.43098 5.75139C9.43527 5.36039 9.43474 4.81143 9.42884 4.10504L9.42938 4.10556Z" fill="#FFF8E0"/>
</g>
<defs>
<clipPath id="clip0_30_1997">
<rect width="18.8652" height="21.0846" fill="white"/>
</clipPath>
</defs>
</svg>
