<svg width="64" height="65" viewBox="0 0 64 65" fill="none" xmlns="http://www.w3.org/2000/svg">
<path fill-rule="evenodd" clip-rule="evenodd" d="M19.3335 16.4997C19.3335 13.1403 20.668 9.91845 23.0435 7.54299C25.4189 5.16753 28.6408 3.83301 32.0002 3.83301C35.3596 3.83301 38.5814 5.16753 40.9568 7.54299C43.3323 9.91845 44.6668 13.1403 44.6668 16.4997C44.6668 19.8591 43.3323 23.0809 40.9568 25.4564C38.5814 27.8318 35.3596 29.1663 32.0002 29.1663C28.6408 29.1663 25.4189 27.8318 23.0435 25.4564C20.668 23.0809 19.3335 19.8591 19.3335 16.4997ZM32.0002 7.83301C29.7016 7.83301 27.4972 8.7461 25.8719 10.3714C24.2466 11.9967 23.3335 14.2011 23.3335 16.4997C23.3335 18.7982 24.2466 21.0026 25.8719 22.6279C27.4972 24.2532 29.7016 25.1663 32.0002 25.1663C34.2987 25.1663 36.5031 24.2532 38.1284 22.6279C39.7537 21.0026 40.6668 18.7982 40.6668 16.4997C40.6668 14.2011 39.7537 11.9967 38.1284 10.3714C36.5031 8.7461 34.2987 7.83301 32.0002 7.83301Z" fill="#491474"/>
<path d="M48 37.6123C48.5304 37.6123 49.0391 37.823 49.4142 38.1981C49.7893 38.5732 50 39.0819 50 39.6123V41.167H51.5546C52.0851 41.167 52.5938 41.3777 52.9689 41.7528C53.3439 42.1278 53.5546 42.6365 53.5546 43.167C53.5546 43.6974 53.3439 44.2061 52.9689 44.5812C52.5938 44.9563 52.0851 45.167 51.5546 45.167H50V46.7216C50 47.2521 49.7893 47.7608 49.4142 48.1359C49.0391 48.5109 48.5304 48.7216 48 48.7216C47.4695 48.7216 46.9608 48.5109 46.5858 48.1359C46.2107 47.7608 46 47.2521 46 46.7216V45.167H44.4453C43.9149 45.167 43.4062 44.9563 43.0311 44.5812C42.656 44.2061 42.4453 43.6974 42.4453 43.167C42.4453 42.6365 42.656 42.1278 43.0311 41.7528C43.4062 41.3777 43.9149 41.167 44.4453 41.167H46V39.6123C46 39.0819 46.2107 38.5732 46.5858 38.1981C46.9608 37.823 47.4695 37.6123 48 37.6123Z" fill="#491474"/>
<path fill-rule="evenodd" clip-rule="evenodd" d="M39.4 33.869C36.9616 33.3981 34.4835 33.1632 32 33.1676C25.832 33.1676 20.1467 34.5703 15.936 36.9383C11.7867 39.2743 8.66665 42.8103 8.66665 47.1676V47.4396C8.66399 50.5383 8.66132 54.4263 12.072 57.205C13.7493 58.5703 16.0987 59.5436 19.272 60.1836C22.4507 60.829 26.5973 61.1676 32 61.1676C39.648 61.1676 44.8267 60.4903 48.32 59.1916C51.464 58.0183 53.3253 56.3063 54.32 54.1463C55.8638 53.256 57.2024 52.0499 58.2482 50.6069C59.2941 49.1639 60.0237 47.5165 60.3893 45.7722C60.7549 44.028 60.7484 42.2262 60.3701 40.4847C59.9918 38.7431 59.2502 37.101 58.1939 35.6657C57.1376 34.2303 55.7903 33.034 54.24 32.155C52.6897 31.2759 50.9714 30.7339 49.1974 30.5643C47.4233 30.3947 45.6334 30.6014 43.9447 31.1709C42.256 31.7403 40.7091 32.6597 39.4 33.869ZM17.8933 40.4263C14.32 42.4343 12.6667 44.8983 12.6667 47.1676C12.6667 50.6556 12.7733 52.6183 14.5947 54.101C15.5813 54.9063 17.2347 55.693 20.0613 56.2636C22.88 56.8343 26.7333 57.1676 31.9973 57.1676C38.872 57.1676 43.304 56.5996 46.16 55.701C44.1751 55.4104 42.2876 54.6525 40.6529 53.4897C39.0182 52.3269 37.683 50.7925 36.7574 49.0127C35.8317 47.233 35.342 45.2589 35.3285 43.2528C35.3151 41.2468 35.7783 39.2663 36.68 37.4743C35.1287 37.2665 33.5651 37.1641 32 37.1676C26.3867 37.1676 21.4027 38.453 17.8933 40.4263ZM39.336 43.1676C39.336 40.8691 40.2491 38.6647 41.8744 37.0394C43.4997 35.414 45.7041 34.501 48.0027 34.501C50.3012 34.501 52.5056 35.414 54.1309 37.0394C55.7562 38.6647 56.6693 40.8691 56.6693 43.1676C56.6693 45.4662 55.7562 47.6706 54.1309 49.2959C52.5056 50.9212 50.3012 51.8343 48.0027 51.8343C45.7041 51.8343 43.4997 50.9212 41.8744 49.2959C40.2491 47.6706 39.336 45.4662 39.336 43.1676Z" fill="#491474"/>
</svg>
