<svg width="120" height="120" viewBox="0 0 120 120" fill="none" xmlns="http://www.w3.org/2000/svg">
<path fill-rule="evenodd" clip-rule="evenodd" d="M39.725 6.25H80.275C87.11 6.25 92.625 6.25 96.96 6.835C101.46 7.435 105.25 8.735 108.26 11.74C111.27 14.75 112.56 18.54 113.17 23.04C113.75 27.375 113.75 32.89 113.75 39.725V60.275C113.75 67.11 113.75 72.625 113.17 76.96C112.56 81.46 111.27 85.25 108.26 88.26C105.77 90.75 102.735 92.075 99.18 92.795C97.1887 93.1739 95.1741 93.4178 93.15 93.525L93.185 93.605C94.55 96.805 93.385 100.53 90.285 102.285C89.4656 102.722 88.5722 103.004 87.65 103.115C86.92 103.225 86 103.315 84.985 103.415L84.885 103.425C84.3787 103.474 83.8736 103.534 83.37 103.605C83.309 103.627 83.253 103.661 83.205 103.705L83.145 103.78L83.12 103.92C83.085 104.17 83.045 104.515 82.98 105.145L82.965 105.245C82.865 106.215 82.77 107.105 82.65 107.82C82.5174 108.752 82.2104 109.651 81.745 110.47C79.87 113.505 76.135 114.44 73.065 113.235C72.2254 112.88 71.4527 112.385 70.78 111.77C70.1015 111.17 69.438 110.553 68.79 109.92L60 101.495L51.21 109.92C50.46 110.64 49.79 111.28 49.22 111.77C48.5477 112.387 47.7749 112.884 46.935 113.24C43.865 114.44 40.13 113.505 38.255 110.47C37.7914 109.651 37.4861 108.752 37.355 107.82C37.2206 106.967 37.1139 106.11 37.035 105.25L37.02 105.15C36.9755 104.692 36.9205 104.235 36.855 103.78L36.795 103.705C36.747 103.661 36.691 103.627 36.63 103.605L36.415 103.565C35.9826 103.51 35.5492 103.464 35.115 103.425L35.015 103.415C33.995 103.315 33.08 103.225 32.35 103.115C31.4278 103.004 30.5344 102.722 29.715 102.285C28.244 101.453 27.1335 100.105 26.5979 98.502C26.0623 96.899 26.1397 95.1543 26.815 93.605L26.85 93.525C25.0157 93.4302 23.189 93.2231 21.38 92.905C17.59 92.205 14.365 90.885 11.74 88.255C8.73 85.25 7.44 81.455 6.835 76.955C6.25 72.625 6.25 67.11 6.25 60.275V39.725C6.25 32.89 6.25 27.375 6.835 23.04C7.435 18.54 8.735 14.75 11.74 11.74C14.75 8.73 18.54 7.44 23.04 6.835C27.375 6.25 32.89 6.25 39.725 6.25ZM33.665 86.23L37.745 82.32L41.29 78.77C41.6008 74.0192 43.7072 69.5646 47.1818 66.3099C50.6565 63.0552 55.2391 61.2441 60 61.2441C64.7609 61.2441 69.3435 63.0552 72.8182 66.3099C76.2928 69.5646 78.3992 74.0192 78.71 78.77L82.26 82.32L86.56 86.445V86.23C91.49 86.18 95.01 85.99 97.685 85.45C100.255 84.925 101.795 84.115 102.955 82.955C104.34 81.57 105.24 79.63 105.735 75.955C106.24 72.18 106.25 67.175 106.25 60V40C106.25 32.825 106.24 27.815 105.735 24.04C105.24 20.37 104.335 18.43 102.955 17.045C101.57 15.66 99.63 14.76 95.955 14.265C92.18 13.76 87.175 13.75 80 13.75H40C32.825 13.75 27.815 13.76 24.04 14.265C20.37 14.76 18.43 15.665 17.045 17.045C15.66 18.43 14.76 20.37 14.265 24.045C13.76 27.81 13.75 32.82 13.75 40V60C13.75 67.175 13.76 72.185 14.265 75.96C14.76 79.63 15.665 81.57 17.045 82.955C18.26 84.17 19.905 85.005 22.735 85.53C25.43 86.025 28.905 86.18 33.665 86.23ZM77.08 87.745C75.0354 92.2418 71.3031 95.7532 66.69 97.52L73.91 104.44C74.55 105.055 75.005 105.49 75.36 105.81C75.405 105.43 75.46 104.96 75.52 104.35L75.545 104.1C75.645 103.18 75.755 102.095 76.135 101.11C76.975 98.935 78.725 97.29 80.885 96.525C81.855 96.18 82.93 96.075 83.895 95.985L85.5 95.825L84.43 94.795L77.08 87.745ZM60.15 91.245L60 91.105L59.85 91.25C56.8796 91.2104 54.0454 89.9975 51.9659 87.876C49.8864 85.7545 48.7304 82.8966 48.7502 79.926C48.7701 76.9554 49.964 74.1132 52.0716 72.0196C54.1792 69.926 57.0293 68.751 60 68.751C62.9707 68.751 65.8208 69.926 67.9284 72.0196C70.036 74.1132 71.2299 76.9554 71.2498 79.926C71.2696 82.8966 70.1136 85.7545 68.0341 87.876C65.9546 89.9975 63.1204 91.2054 60.15 91.245ZM53.31 97.525L46.09 104.445C45.45 105.06 44.995 105.495 44.64 105.815L44.48 104.355L44.455 104.105C44.355 103.185 44.245 102.1 43.865 101.115C43.4508 100.053 42.8118 99.094 41.9919 98.3025C41.172 97.5111 40.1906 96.9064 39.115 96.53C38.1375 96.2275 37.1267 96.0461 36.105 95.99L34.505 95.83C34.7817 95.5533 35.1367 95.21 35.57 94.8L42.92 87.75C44.9646 92.2468 48.6969 95.7582 53.31 97.525ZM41.25 30C41.25 29.0054 41.6451 28.0516 42.3484 27.3483C43.0516 26.6451 44.0054 26.25 45 26.25H75C75.9946 26.25 76.9484 26.6451 77.6516 27.3483C78.3549 28.0516 78.75 29.0054 78.75 30C78.75 30.9946 78.3549 31.9484 77.6516 32.6517C76.9484 33.3549 75.9946 33.75 75 33.75H45C44.0054 33.75 43.0516 33.3549 42.3484 32.6517C41.6451 31.9484 41.25 30.9946 41.25 30ZM31.25 47.5C31.25 46.5054 31.6451 45.5516 32.3483 44.8484C33.0516 44.1451 34.0054 43.75 35 43.75H85C85.9946 43.75 86.9484 44.1451 87.6517 44.8484C88.3549 45.5516 88.75 46.5054 88.75 47.5C88.75 48.4946 88.3549 49.4484 87.6517 50.1516C86.9484 50.8549 85.9946 51.25 85 51.25H35C34.0054 51.25 33.0516 50.8549 32.3483 50.1516C31.6451 49.4484 31.25 48.4946 31.25 47.5Z" fill="white"/>
</svg>
