<svg width="64" height="65" viewBox="0 0 64 65" fill="none" xmlns="http://www.w3.org/2000/svg">
<path fill-rule="evenodd" clip-rule="evenodd" d="M38.1996 10.5005H25.7996C25.4076 12.4223 24.4592 14.1864 23.0723 15.5733C21.6855 16.9602 19.9214 17.9086 17.9996 18.3005V20.0339C19.9214 20.4258 21.6855 21.3742 23.0723 22.7611C24.4592 24.148 25.4076 25.9121 25.7996 27.8339H38.1996C38.5915 25.9121 39.5399 24.148 40.9268 22.7611C42.3137 21.3742 44.0778 20.4258 45.9996 20.0339V18.3005C44.0778 17.9086 42.3137 16.9602 40.9268 15.5733C39.5399 14.1864 38.5915 12.4223 38.1996 10.5005ZM39.8129 6.50853C39.0805 6.50142 38.3 6.49876 37.4716 6.50053H26.5276C25.6991 6.50053 24.9196 6.5032 24.1889 6.50853C24.0432 6.49922 23.8969 6.5019 23.7516 6.51653C22.5462 6.53787 21.4769 6.58853 20.5489 6.71387C18.8742 6.93787 17.3622 7.43387 16.1489 8.6472C14.9329 9.8632 14.4369 11.3752 14.2129 13.0472C14.0876 13.9779 14.0369 15.0472 14.0156 16.2525C14.0011 16.397 13.9984 16.5423 14.0076 16.6872C14.0005 17.4214 13.9978 18.2019 13.9996 19.0285V19.3059C13.9996 20.1325 14.0022 20.913 14.0076 21.6472C13.9984 21.7921 14.0011 21.9374 14.0156 22.0819C14.0369 23.2899 14.0876 24.3565 14.2129 25.2845C14.4369 26.9592 14.9329 28.4712 16.1489 29.6845C17.3622 30.9005 18.8742 31.3965 20.5489 31.6205C21.4769 31.7459 22.5462 31.7965 23.7516 31.8179C23.8969 31.8325 24.0432 31.8352 24.1889 31.8259C24.9196 31.833 25.6991 31.8356 26.5276 31.8339H37.4716C38.2982 31.8339 39.0787 31.8312 39.8129 31.8259C39.9578 31.835 40.1031 31.8324 40.2476 31.8179C41.4556 31.7965 42.5249 31.7459 43.4502 31.6205C45.1249 31.3965 46.6369 30.9005 47.8502 29.6845C49.0662 28.4712 49.5622 26.9592 49.7862 25.2845C49.9104 24.2214 49.9763 23.1522 49.9836 22.0819C49.9981 21.9374 50.0007 21.7921 49.9916 21.6472C49.9987 20.913 50.0014 20.1325 49.9996 19.3059V19.0285C49.9996 18.2019 49.9969 17.4214 49.9916 16.6872C50.0007 16.5423 49.9981 16.397 49.9836 16.2525C49.9763 15.1822 49.9104 14.113 49.7862 13.0499C49.5622 11.3752 49.0662 9.8632 47.8529 8.64987C46.6369 7.43387 45.1249 6.93787 43.4529 6.71387C42.3889 6.58961 41.3188 6.52373 40.2476 6.51653C40.1031 6.50204 39.9578 6.49937 39.8129 6.50853ZM42.3836 10.6179C42.686 11.4154 43.1542 12.1397 43.7573 12.7428C44.3604 13.3459 45.0847 13.8142 45.8822 14.1165C45.8654 13.9384 45.8449 13.7605 45.8209 13.5832C45.6582 12.3512 45.3702 11.8232 45.0209 11.4765C44.6716 11.1299 44.1489 10.8445 42.9196 10.6765C42.7422 10.6534 42.5644 10.6338 42.3862 10.6179M45.8849 24.2179C45.0874 24.5203 44.3631 24.9885 43.76 25.5916C43.1569 26.1947 42.6886 26.919 42.3862 27.7165C42.5729 27.6988 42.7507 27.6792 42.9196 27.6579C44.1516 27.4899 44.6796 27.2045 45.0262 26.8579C45.3729 26.5112 45.6609 25.9832 45.8262 24.7512C45.8476 24.5823 45.8671 24.4045 45.8849 24.2179ZM21.6182 27.7165C21.3159 26.919 20.8476 26.1947 20.2445 25.5916C19.6414 24.9885 18.9171 24.5203 18.1196 24.2179C18.1374 24.4045 18.1578 24.5823 18.1809 24.7512C18.3462 25.9832 18.6316 26.5112 18.9809 26.8579C19.3302 27.2045 19.8529 27.4899 21.0822 27.6579C21.2529 27.6792 21.4316 27.6988 21.6182 27.7165ZM18.1196 14.1165C18.9171 13.8142 19.6414 13.3459 20.2445 12.7428C20.8476 12.1397 21.3159 11.4154 21.6182 10.6179C21.4316 10.6356 21.2538 10.6561 21.0849 10.6792C19.8529 10.8445 19.3249 11.1299 18.9782 11.4792C18.6316 11.8285 18.3462 12.3512 18.1782 13.5805L18.1196 14.1165ZM31.9996 18.5005C31.8228 18.5005 31.6532 18.5708 31.5282 18.6958C31.4031 18.8208 31.3329 18.9904 31.3329 19.1672C31.3329 19.344 31.4031 19.5136 31.5282 19.6386C31.6532 19.7636 31.8228 19.8339 31.9996 19.8339C32.1764 19.8339 32.346 19.7636 32.471 19.6386C32.596 19.5136 32.6662 19.344 32.6662 19.1672C32.6662 18.9904 32.596 18.8208 32.471 18.6958C32.346 18.5708 32.1764 18.5005 31.9996 18.5005ZM27.3329 19.1672C27.3329 17.9295 27.8246 16.7425 28.6997 15.8674C29.5749 14.9922 30.7619 14.5005 31.9996 14.5005C33.2373 14.5005 34.4242 14.9922 35.2994 15.8674C36.1746 16.7425 36.6662 17.9295 36.6662 19.1672C36.6662 20.4049 36.1746 21.5919 35.2994 22.467C34.4242 23.3422 33.2373 23.8339 31.9996 23.8339C30.7619 23.8339 29.5749 23.3422 28.6997 22.467C27.8246 21.5919 27.3329 20.4049 27.3329 19.1672ZM23.1569 39.0285C28.1329 38.0659 33.4582 38.2819 37.7702 40.8525C38.3729 41.2125 38.9436 41.6632 39.4369 42.2179C40.4396 43.3459 40.9569 44.7432 40.9809 46.1459C41.4894 45.8152 42.0022 45.4534 42.5196 45.0605L47.3409 41.4205C48.5488 40.5341 50.008 40.0561 51.5062 40.0561C53.0045 40.0561 54.4637 40.5341 55.6716 41.4205C57.8982 43.1005 58.7889 46.1219 57.1916 48.6819C56.0582 50.4979 54.3516 53.0125 52.6129 54.6232C50.8529 56.2499 48.3542 57.6205 46.4636 58.5325C44.1649 59.6419 41.6849 60.2552 39.2716 60.6445C34.3382 61.4445 29.2076 61.3219 24.3329 60.3165C21.819 59.7997 19.2594 59.5379 16.6929 59.5352H10.6662C10.1358 59.5352 9.6271 59.3245 9.25202 58.9494C8.87695 58.5743 8.66624 58.0656 8.66624 57.5352C8.66624 57.0048 8.87695 56.4961 9.25202 56.121C9.6271 55.7459 10.1358 55.5352 10.6662 55.5352H16.6929C19.5249 55.5352 22.3862 55.8312 25.1409 56.3992C29.584 57.3109 34.1554 57.4112 38.6342 56.6952C40.8422 56.3379 42.9062 55.8072 44.7249 54.9299C46.5462 54.0499 48.5942 52.8925 49.8929 51.6899C51.2076 50.4712 52.6769 48.3619 53.7996 46.5645C54.1382 46.0205 54.0902 45.2392 53.2609 44.6125C52.2742 43.8659 50.7356 43.8659 49.7516 44.6125L44.9329 48.2525C43.0076 49.7059 40.6396 51.2605 37.7036 51.7299C37.396 51.7785 37.0875 51.8212 36.7782 51.8579C36.6254 51.8845 36.4662 51.9023 36.3009 51.9112C34.5876 52.0775 32.8622 52.0775 31.1489 51.9112C30.8833 51.8919 30.6242 51.8198 30.3868 51.6991C30.1494 51.5784 29.9386 51.4115 29.7666 51.2081C29.5946 51.0048 29.4649 50.7692 29.3852 50.5151C29.3055 50.261 29.2773 49.9935 29.3023 49.7284C29.3274 49.4633 29.4051 49.2058 29.531 48.9711C29.6569 48.7364 29.8284 48.5292 30.0354 48.3617C30.2424 48.1942 30.4808 48.0697 30.7366 47.9955C30.9924 47.9214 31.2604 47.8991 31.5249 47.9299C33.0042 48.073 34.4941 48.0704 35.9729 47.9219L36.0529 47.9139C36.3017 47.7595 36.5131 47.5518 36.6719 47.3057C36.8307 47.0597 36.933 46.7815 36.9712 46.4912C37.0095 46.2009 36.9829 45.9057 36.8932 45.627C36.8036 45.3482 36.6532 45.0928 36.4529 44.8792C36.239 44.6468 35.9919 44.4473 35.7196 44.2872C32.5702 42.4072 28.3622 42.0952 23.9169 42.9539C19.5744 43.8256 15.4578 45.5821 11.8236 48.1139C11.6093 48.2659 11.3671 48.3741 11.1109 48.4325C10.8548 48.4909 10.5896 48.4983 10.3306 48.4542C10.0716 48.4101 9.82379 48.3155 9.60136 48.1756C9.37893 48.0358 9.18622 47.8535 9.03424 47.6392C8.88226 47.4249 8.77397 47.1827 8.71557 46.9266C8.65718 46.6704 8.6498 46.4052 8.69388 46.1462C8.7829 45.6231 9.07607 45.1568 9.50891 44.8499C13.6084 41.9896 18.255 40.0077 23.1569 39.0285Z" fill="#491474"/>
</svg>
