<svg width="120" height="120" viewBox="0 0 120 120" fill="none" xmlns="http://www.w3.org/2000/svg">
<path d="M45 80C45 81.3261 44.4732 82.5979 43.5355 83.5355C42.5979 84.4732 41.3261 85 40 85C38.6739 85 37.4021 84.4732 36.4645 83.5355C35.5268 82.5979 35 81.3261 35 80C35 78.6739 35.5268 77.4021 36.4645 76.4645C37.4021 75.5268 38.6739 75 40 75C41.3261 75 42.5979 75.5268 43.5355 76.4645C44.4732 77.4021 45 78.6739 45 80ZM65 80C65 81.3261 64.4732 82.5979 63.5355 83.5355C62.5979 84.4732 61.3261 85 60 85C58.6739 85 57.4021 84.4732 56.4645 83.5355C55.5268 82.5979 55 81.3261 55 80C55 78.6739 55.5268 77.4021 56.4645 76.4645C57.4021 75.5268 58.6739 75 60 75C61.3261 75 62.5979 75.5268 63.5355 76.4645C64.4732 77.4021 65 78.6739 65 80ZM80 85C81.3261 85 82.5979 84.4732 83.5355 83.5355C84.4732 82.5979 85 81.3261 85 80C85 78.6739 84.4732 77.4021 83.5355 76.4645C82.5979 75.5268 81.3261 75 80 75C78.6739 75 77.4021 75.5268 76.4645 76.4645C75.5268 77.4021 75 78.6739 75 80C75 81.3261 75.5268 82.5979 76.4645 83.5355C77.4021 84.4732 78.6739 85 80 85Z" fill="white"/>
<path fill-rule="evenodd" clip-rule="evenodd" d="M26.25 40V46.515C25.1167 46.5917 24.0467 46.6983 23.04 46.835C18.54 47.435 14.75 48.735 11.74 51.74C8.73 54.75 7.44 58.54 6.835 63.04C6.25 67.375 6.25 72.89 6.25 79.725V80.275C6.25 87.11 6.25 92.625 6.835 96.96C7.435 101.46 8.735 105.25 11.74 108.26C14.75 111.27 18.54 112.56 23.04 113.17C27.375 113.75 32.89 113.75 39.725 113.75H80.275C87.11 113.75 92.625 113.75 96.96 113.17C101.46 112.56 105.25 111.27 108.26 108.26C111.27 105.25 112.56 101.46 113.17 96.96C113.75 92.625 113.75 87.11 113.75 80.275V79.725C113.75 72.89 113.75 67.375 113.17 63.04C112.56 58.54 111.27 54.75 108.26 51.74C105.25 48.73 101.46 47.44 96.96 46.835C95.8937 46.6938 94.8232 46.5871 93.75 46.515V40C93.75 31.0489 90.1942 22.4645 83.8649 16.1351C77.5355 9.80579 68.9511 6.25 60 6.25C51.0489 6.25 42.4645 9.80579 36.1351 16.1351C29.8058 22.4645 26.25 31.0489 26.25 40ZM60 13.75C53.0381 13.75 46.3613 16.5156 41.4384 21.4384C36.5156 26.3613 33.75 33.0381 33.75 40V46.265C35.6167 46.2517 37.6083 46.2467 39.725 46.25H80.275C82.3917 46.25 84.3833 46.255 86.25 46.265V40C86.25 25.5 74.5 13.75 60 13.75ZM24.04 54.265C20.37 54.76 18.43 55.665 17.045 57.045C15.66 58.43 14.76 60.37 14.265 64.045C13.76 67.82 13.75 72.825 13.75 80C13.75 87.175 13.76 92.18 14.265 95.96C14.76 99.63 15.665 101.57 17.045 102.955C18.43 104.34 20.37 105.24 24.045 105.735C27.815 106.24 32.825 106.25 40 106.25H80C87.175 106.25 92.18 106.24 95.96 105.735C99.63 105.24 101.57 104.335 102.955 102.955C104.34 101.57 105.24 99.63 105.735 95.955C106.24 92.18 106.25 87.175 106.25 80C106.25 72.825 106.24 67.815 105.735 64.04C105.24 60.37 104.335 58.43 102.955 57.045C101.57 55.66 99.63 54.76 95.955 54.265C92.18 53.76 87.175 53.75 80 53.75H40C32.825 53.75 27.815 53.76 24.04 54.265Z" fill="white"/>
</svg>
