<svg width="64" height="65" viewBox="0 0 64 65" fill="none" xmlns="http://www.w3.org/2000/svg">
<path d="M17.9011 28.9643C19.1118 22.2443 25.0264 17.167 32.1144 17.167C36.3224 17.167 40.1144 18.9537 42.7544 21.807C42.933 21.9998 43.0719 22.2258 43.1631 22.4723C43.2544 22.7187 43.2962 22.9808 43.2861 23.2434C43.2761 23.506 43.2144 23.764 43.1047 24.0028C42.9949 24.2416 42.8392 24.4564 42.6464 24.635C42.4536 24.8136 42.2276 24.9525 41.9811 25.0437C41.7347 25.1349 41.4727 25.1767 41.2101 25.1667C40.9474 25.1567 40.6894 25.095 40.4506 24.9852C40.2118 24.8755 39.997 24.7198 39.8184 24.527C38.837 23.4646 37.6458 22.6175 36.3202 22.0391C34.9946 21.4608 33.5634 21.1638 32.1171 21.167C29.7982 21.159 27.5428 21.9242 25.7076 23.3417C23.8723 24.7592 22.562 26.748 21.9838 28.9937L22.6158 28.391C23.0015 28.0415 23.5084 27.8562 24.0286 27.8744C24.5488 27.8926 25.0415 28.113 25.4018 28.4886C25.7622 28.8642 25.9619 29.3656 25.9585 29.8861C25.9552 30.4067 25.749 30.9054 25.3838 31.2763L21.0584 35.4257C20.8641 35.6118 20.6342 35.7569 20.3824 35.8521C20.1307 35.9473 19.8624 35.9907 19.5935 35.9798C19.3245 35.9688 19.0606 35.9037 18.8175 35.7883C18.5743 35.673 18.357 35.5097 18.1784 35.3083L14.5038 31.159C14.3181 30.9645 14.1736 30.7345 14.0789 30.4829C13.9842 30.2313 13.9412 29.9631 13.9524 29.6945C13.9637 29.4258 14.029 29.1622 14.1445 28.9194C14.2599 28.6766 14.4232 28.4595 14.6244 28.2812C14.8257 28.103 15.0608 27.9671 15.3158 27.8817C15.5708 27.7964 15.8403 27.7633 16.1084 27.7845C16.3764 27.8057 16.6374 27.8807 16.8758 28.0051C17.1142 28.1295 17.325 28.3006 17.4958 28.5083L17.9011 28.9643ZM44.3971 29.023C44.6655 29.0339 44.9291 29.0988 45.1719 29.2138C45.4147 29.3288 45.6319 29.4915 45.8104 29.6923L49.4958 33.839C49.6702 34.0354 49.8041 34.2643 49.8901 34.5126C49.976 34.7608 50.0122 35.0236 49.9966 35.2858C49.981 35.548 49.9139 35.8046 49.7992 36.0409C49.6844 36.2772 49.5242 36.4886 49.3278 36.663C49.1313 36.8374 48.9024 36.9714 48.6542 37.0573C48.4059 37.1433 48.1432 37.1795 47.881 37.1639C47.6187 37.1483 47.3621 37.0812 47.1258 36.9664C46.8895 36.8516 46.6781 36.6915 46.5038 36.495L46.0904 36.0283C44.8798 42.7563 38.9358 47.8363 31.8238 47.8363C29.8352 47.839 27.8672 47.4335 26.0417 46.6451C24.2161 45.8566 22.5718 44.7019 21.2104 43.2523C21.0201 43.0631 20.8697 42.8374 20.7684 42.5888C20.6671 42.3402 20.6169 42.0737 20.6208 41.8053C20.6246 41.5369 20.6825 41.272 20.7909 41.0264C20.8993 40.7808 21.056 40.5596 21.2517 40.3758C21.4475 40.1921 21.6782 40.0497 21.9301 39.957C22.1821 39.8643 22.4501 39.8233 22.7182 39.8364C22.9863 39.8495 23.2491 39.9165 23.4908 40.0333C23.7325 40.1501 23.9482 40.3144 24.1251 40.5163C25.113 41.5676 26.3063 42.4047 27.6311 42.9758C28.9559 43.5469 30.3838 43.8398 31.8264 43.8363C34.1494 43.8468 36.4098 43.0842 38.2516 41.6686C40.0935 40.2531 41.4121 38.2651 41.9998 36.0177L41.3864 36.6097C41.197 36.7918 40.9735 36.9348 40.7288 37.0305C40.4841 37.1262 40.2229 37.1728 39.9602 37.1676C39.6974 37.1624 39.4383 37.1055 39.1976 37.0002C38.9568 36.8948 38.7392 36.7431 38.5571 36.5537C38.375 36.3642 38.232 36.1407 38.1362 35.896C38.0405 35.6513 37.9939 35.3901 37.9991 35.1274C38.0043 34.8647 38.0612 34.6055 38.1666 34.3648C38.2719 34.1241 38.4236 33.9064 38.6131 33.7243L42.9331 29.5777C43.127 29.3918 43.3563 29.247 43.6073 29.1517C43.8584 29.0564 44.1287 29.0126 44.3971 29.023Z" fill="#491474"/>
<path fill-rule="evenodd" clip-rule="evenodd" d="M32.0002 3.83301C16.1682 3.83301 3.3335 16.6677 3.3335 32.4997C3.3335 48.3317 16.1682 61.1663 32.0002 61.1663C47.8322 61.1663 60.6668 48.3317 60.6668 32.4997C60.6668 16.6677 47.8322 3.83301 32.0002 3.83301ZM7.3335 32.4997C7.3335 25.9577 9.9323 19.6836 14.5582 15.0577C19.1841 10.4318 25.4582 7.83301 32.0002 7.83301C38.5422 7.83301 44.8162 10.4318 49.4421 15.0577C54.068 19.6836 56.6668 25.9577 56.6668 32.4997C56.6668 39.0417 54.068 45.3157 49.4421 49.9416C44.8162 54.5675 38.5422 57.1663 32.0002 57.1663C25.4582 57.1663 19.1841 54.5675 14.5582 49.9416C9.9323 45.3157 7.3335 39.0417 7.3335 32.4997Z" fill="#491474"/>
</svg>
