<svg width="32" height="32" viewBox="0 0 32 32" fill="none" xmlns="http://www.w3.org/2000/svg">
<path fill-rule="evenodd" clip-rule="evenodd" d="M15.9998 3.66699C12.7288 3.66699 9.5918 4.96639 7.27885 7.27934C4.96591 9.59229 3.6665 12.7293 3.6665 16.0003C3.6665 19.2713 4.96591 22.4084 7.27885 24.7213C9.5918 27.0343 12.7288 28.3337 15.9998 28.3337C19.2708 28.3337 22.4079 27.0343 24.7208 24.7213C27.0338 22.4084 28.3332 19.2713 28.3332 16.0003C28.3332 12.7293 27.0338 9.59229 24.7208 7.27934C22.4079 4.96639 19.2708 3.66699 15.9998 3.66699ZM1.6665 16.0003C1.6665 8.08433 8.08384 1.66699 15.9998 1.66699C23.9158 1.66699 30.3332 8.08433 30.3332 16.0003C30.3332 23.9163 23.9158 30.3337 15.9998 30.3337C8.08384 30.3337 1.6665 23.9163 1.6665 16.0003ZM13.2932 11.2937C13.4807 11.1064 13.7348 11.0012 13.9998 11.0012C14.2648 11.0012 14.519 11.1064 14.7065 11.2937L18.7065 15.2937C18.8938 15.4812 18.999 15.7353 18.999 16.0003C18.999 16.2653 18.8938 16.5195 18.7065 16.707L14.7065 20.707C14.615 20.8052 14.5046 20.884 14.3819 20.9387C14.2592 20.9934 14.1268 21.0227 13.9925 21.0251C13.8583 21.0275 13.7249 21.0028 13.6004 20.9525C13.4759 20.9022 13.3627 20.8273 13.2678 20.7324C13.1728 20.6374 13.098 20.5243 13.0477 20.3998C12.9974 20.2753 12.9727 20.1419 12.975 20.0076C12.9774 19.8734 13.0068 19.7409 13.0615 19.6183C13.1161 19.4956 13.1949 19.3852 13.2932 19.2937L16.5865 16.0003L13.2932 12.707C13.1059 12.5195 13.0007 12.2653 13.0007 12.0003C13.0007 11.7353 13.1059 11.4812 13.2932 11.2937Z" fill="#491474"/>
</svg>
