<svg width="64" height="65" viewBox="0 0 64 65" fill="none" xmlns="http://www.w3.org/2000/svg">
<path fill-rule="evenodd" clip-rule="evenodd" d="M32.0002 7.83301C25.4582 7.83301 19.1841 10.4318 14.5582 15.0577C9.9323 19.6836 7.3335 25.9577 7.3335 32.4997C7.3335 39.0417 9.9323 45.3157 14.5582 49.9416C19.1841 54.5675 25.4582 57.1663 32.0002 57.1663C38.5422 57.1663 44.8162 54.5675 49.4421 49.9416C54.068 45.3157 56.6668 39.0417 56.6668 32.4997C56.6668 25.9577 54.068 19.6836 49.4421 15.0577C44.8162 10.4318 38.5422 7.83301 32.0002 7.83301ZM3.3335 32.4997C3.3335 16.6677 16.1682 3.83301 32.0002 3.83301C47.8322 3.83301 60.6668 16.6677 60.6668 32.4997C60.6668 48.3317 47.8322 61.1663 32.0002 61.1663C16.1682 61.1663 3.3335 48.3317 3.3335 32.4997ZM32.0002 14.4997C32.5306 14.4997 33.0393 14.7104 33.4144 15.0855C33.7894 15.4605 34.0002 15.9692 34.0002 16.4997V17.345C38.3468 18.1237 42.0002 21.3903 42.0002 25.833C42.0002 26.3634 41.7894 26.8721 41.4144 27.2472C41.0393 27.6223 40.5306 27.833 40.0002 27.833C39.4697 27.833 38.961 27.6223 38.586 27.2472C38.2109 26.8721 38.0002 26.3634 38.0002 25.833C38.0002 23.5823 35.6722 21.1663 32.0002 21.1663C28.3308 21.1663 26.0002 23.5823 26.0002 25.833C26.0002 28.0837 28.3308 30.4997 32.0002 30.4997C37.1655 30.4997 42.0002 34.0543 42.0002 39.1663C42.0002 43.609 38.3468 46.8757 34.0002 47.6543V48.4997C34.0002 49.0301 33.7894 49.5388 33.4144 49.9139C33.0393 50.289 32.5306 50.4997 32.0002 50.4997C31.4697 50.4997 30.961 50.289 30.586 49.9139C30.2109 49.5388 30.0002 49.0301 30.0002 48.4997V47.6543C25.6535 46.8757 22.0002 43.609 22.0002 39.1663C22.0002 38.6359 22.2109 38.1272 22.586 37.7521C22.961 37.3771 23.4697 37.1663 24.0002 37.1663C24.5306 37.1663 25.0393 37.3771 25.4144 37.7521C25.7894 38.1272 26.0002 38.6359 26.0002 39.1663C26.0002 41.417 28.3308 43.833 32.0002 43.833C35.6722 43.833 38.0002 41.417 38.0002 39.1663C38.0002 36.9157 35.6722 34.4997 32.0002 34.4997C26.8348 34.4997 22.0002 30.945 22.0002 25.833C22.0002 21.3903 25.6535 18.1237 30.0002 17.345V16.4997C30.0002 15.9692 30.2109 15.4605 30.586 15.0855C30.961 14.7104 31.4697 14.4997 32.0002 14.4997Z" fill="#491474"/>
</svg>
