<svg width="21" height="25" viewBox="0 0 21 25" fill="none" xmlns="http://www.w3.org/2000/svg">
<g clip-path="url(#clip0_4087_510)">
<path d="M17.8293 5.20122C16.5343 4.35842 15.6005 3.00933 15.3087 1.43751C15.246 1.09798 15.211 0.748214 15.211 0.390625H11.079L11.0723 16.9264C11.003 18.7782 9.47652 20.2645 7.60581 20.2645C7.02404 20.2645 6.47664 20.1194 5.99434 19.866C4.88868 19.285 4.13207 18.128 4.13207 16.7964C4.13207 14.8838 5.6905 13.3276 7.60521 13.3276C7.96271 13.3276 8.30575 13.3866 8.63009 13.4878V9.27557C8.29429 9.22981 7.95307 9.20152 7.60521 9.20152C3.41164 9.20152 0 12.6082 0 16.7964C0 19.3657 1.28532 21.6395 3.24706 23.0144C4.48234 23.8807 5.9853 24.3906 7.60581 24.3906C11.7994 24.3906 15.211 20.9839 15.211 16.7964V8.41109C16.8315 9.57235 18.8174 10.2568 20.96 10.2568V6.13071C19.8061 6.13071 18.7312 5.78817 17.8293 5.20122Z" fill="white"/>
</g>
<defs>
<clipPath id="clip0_4087_510">
<rect width="20.96" height="24" fill="white" transform="translate(0 0.390625)"/>
</clipPath>
</defs>
</svg>
