<svg width="24" height="25" viewBox="0 0 24 25" fill="none" xmlns="http://www.w3.org/2000/svg">
<g clip-path="url(#clip0_4087_502)">
<path fill-rule="evenodd" clip-rule="evenodd" d="M20.5031 3.82859C18.2473 1.56989 15.2471 0.325365 12.0504 0.324219C5.4634 0.324219 0.102564 5.68448 0.100272 12.2732C0.099126 14.3795 0.649764 16.4354 1.69546 18.2472L0 24.44L6.33491 22.7783C8.0802 23.7306 10.0455 24.232 12.0453 24.2326H12.0504C18.6363 24.2326 23.9977 18.8717 24 12.283C24.0011 9.08975 22.7595 6.08786 20.5031 3.82916V3.82859ZM12.0504 22.2145H12.0464C10.2644 22.214 8.51627 21.7349 6.991 20.8302L6.62828 20.6148L2.86893 21.6008L3.87223 17.9354L3.63615 17.5596C2.64203 15.9782 2.1166 14.1503 2.11775 12.2738C2.12004 6.79779 6.57556 2.34227 12.0545 2.34227C14.7073 2.34341 17.201 3.37765 19.0763 5.25532C20.9517 7.13242 21.9837 9.62835 21.9825 12.2818C21.9802 17.7584 17.5247 22.214 12.0504 22.214V22.2145ZM17.4983 14.776C17.1998 14.6265 15.7319 13.9045 15.4579 13.8048C15.1841 13.7051 14.9853 13.6553 14.7864 13.9544C14.5876 14.2535 14.0152 14.9262 13.841 15.125C13.6668 15.3244 13.4926 15.349 13.1941 15.1994C12.8956 15.0499 11.9335 14.7348 10.7927 13.7177C9.9052 12.9258 9.3058 11.9484 9.13167 11.6492C8.95747 11.3502 9.11333 11.1886 9.26227 11.0402C9.39633 10.9061 9.5608 10.6912 9.71033 10.517C9.85993 10.3428 9.9092 10.218 10.0089 10.0191C10.1086 9.81968 10.0587 9.64555 9.98427 9.49595C9.90973 9.34642 9.31273 7.87668 9.06347 7.27908C8.82107 6.69694 8.57473 6.77602 8.39193 6.76628C8.21773 6.75768 8.01893 6.75596 7.81953 6.75596C7.62013 6.75596 7.29693 6.83045 7.02307 7.12955C6.7492 7.42862 5.97794 8.15115 5.97794 9.62028C5.97794 11.0894 7.04773 12.5099 7.19727 12.7093C7.3468 12.9087 9.30293 15.9243 12.2979 17.2181C13.0102 17.5258 13.5665 17.7097 14.0003 17.8472C14.7154 18.0747 15.3663 18.0426 15.8808 17.9658C16.4544 17.8799 17.6473 17.2433 17.896 16.546C18.1447 15.8486 18.1447 15.2504 18.0702 15.1261C17.9957 15.0018 17.7963 14.9267 17.4978 14.7772L17.4983 14.776Z" fill="white"/>
</g>
<defs>
<clipPath id="clip0_4087_502">
<rect width="24" height="24.1333" fill="white" transform="translate(0 0.324219)"/>
</clipPath>
</defs>
</svg>
