<svg width="65" height="65" viewBox="0 0 65 65" fill="none" xmlns="http://www.w3.org/2000/svg">
<rect width="65" height="65" rx="7" fill="#491474"/>
<path d="M2 31.4974C2 22.447 8.2675 18 13.957 18C18.39 18 20.9935 20.5024 21.3805 21.4512H21.5262V18.5005H29V44.4995H21.5262V41.5488H21.3805C20.9935 42.4976 18.39 45 13.957 45C8.2675 45 2 40.5478 2 31.4974ZM15.495 38.0975C18.772 38.0975 21.7122 35.7463 21.7122 31.4974C21.7122 27.2485 18.772 24.8973 15.495 24.8973C12.218 24.8973 9.37323 27.2954 9.37323 31.4974C9.37323 35.6994 12.3135 38.0975 15.495 38.0975Z" fill="white"/>
<path d="M36 18.4866H43.4738V21.3555H43.6195C44.0065 20.433 46.61 18 51.043 18C56.7325 18 63 22.3287 63 31.1282C63 39.9276 56.7325 44.2513 51.043 44.2513C46.61 44.2513 44.0065 41.8233 43.6195 40.8957H43.4738V53H36V18.4866ZM49.5 37.5453C52.6815 37.5453 55.6217 35.2136 55.6217 31.1282C55.6217 27.0427 52.6815 24.7111 49.5 24.7111C46.3185 24.7111 43.2828 26.9971 43.2828 31.1282C43.2828 35.2592 46.223 37.5453 49.5 37.5453Z" fill="white"/>
</svg>
