<svg width="247" height="280" viewBox="0 0 247 280" fill="none" xmlns="http://www.w3.org/2000/svg">
<mask id="mask0_80_212" style="mask-type:alpha" maskUnits="userSpaceOnUse" x="0" y="0" width="350" height="280">
<rect width="350" height="280" fill="#DCDCDC"/>
</mask>
<g mask="url(#mask0_80_212)">
<path d="M151.539 148.239H189.822V162.218H190.564C192.541 157.717 205.878 145.867 228.599 145.867C257.741 145.867 289.85 166.953 289.85 209.842C289.85 252.73 257.746 273.816 228.599 273.816C205.878 273.816 192.541 261.971 190.564 257.465H189.822V316.463H151.539V148.23V148.239ZM220.688 241.122C236.988 241.122 252.054 229.748 252.054 209.846C252.054 189.944 236.988 178.569 220.688 178.569C204.388 178.569 188.827 189.706 188.827 209.846C188.827 229.986 203.893 241.122 220.688 241.122Z" fill="white" fill-opacity="0.5"/>
<path d="M-79 63.7946C-79 20.6917 -46.9276 -0.499512 -17.8106 -0.499512C4.88747 -0.499512 18.2112 11.4051 20.1859 15.9333H20.9281V1.88397H59.172V125.714H20.9281V111.665H20.1859C18.2112 116.188 4.88747 128.097 -17.8106 128.097C-46.9276 128.089 -79 106.893 -79 63.7946ZM-9.9162 95.2275C6.86218 95.2275 21.9132 84.035 21.9132 63.7946C21.9132 43.5543 6.86218 32.3618 -9.9162 32.3618C-26.6946 32.3618 -41.2509 43.7931 -41.2509 63.7946C-41.2509 83.7962 -26.1998 95.2275 -9.9162 95.2275Z" fill="white" fill-opacity="0.5"/>
<path d="M78.1368 1.85707H116.193V15.7479H116.932C118.897 11.275 132.155 -0.499512 154.742 -0.499512C183.712 -0.499512 215.631 20.4526 215.631 63.0693C215.631 105.686 183.716 126.638 154.742 126.638C132.155 126.638 118.897 114.868 116.932 110.391H116.193V169.014H78.1368V1.85707ZM146.882 94.1518C163.086 94.1518 178.063 82.8494 178.063 63.0735C178.063 43.2976 163.086 31.9952 146.882 31.9952C130.678 31.9952 115.209 43.0615 115.209 63.0735C115.209 83.0855 130.186 94.1518 146.882 94.1518Z" fill="white" fill-opacity="0.5"/>
<path d="M222.405 63.7989C222.405 21.644 256.934 -0.499512 290.475 -0.499512C324.015 -0.499512 358.545 21.6482 358.545 63.7989C358.545 105.95 324.015 128.097 290.475 128.097C256.934 128.097 222.405 105.95 222.405 63.7989ZM290.475 94.7563C307 94.7563 320.813 82.8509 320.813 63.7989C320.813 44.7469 307 32.8415 290.475 32.8415C273.95 32.8415 260.14 44.7469 260.14 63.7989C260.14 82.8509 273.954 94.7563 290.475 94.7563Z" fill="white" fill-opacity="0.5"/>
</g>
</svg>
