<svg width="216" height="125" viewBox="0 0 216 125" fill="none" xmlns="http://www.w3.org/2000/svg">
<path d="M41.1123 114.816C41.1123 115.104 41.0943 115.404 41.0583 115.716H34.0923C34.1403 116.34 34.3383 116.82 34.6863 117.156C35.0463 117.48 35.4843 117.642 36.0003 117.642C36.7683 117.642 37.3023 117.318 37.6023 116.67H40.8783C40.7103 117.33 40.4043 117.924 39.9603 118.452C39.5283 118.98 38.9823 119.394 38.3223 119.694C37.6623 119.994 36.9243 120.144 36.1083 120.144C35.1243 120.144 34.2483 119.934 33.4803 119.514C32.7123 119.094 32.1123 118.494 31.6803 117.714C31.2483 116.934 31.0323 116.022 31.0323 114.978C31.0323 113.934 31.2423 113.022 31.6623 112.242C32.0943 111.462 32.6943 110.862 33.4623 110.442C34.2303 110.022 35.1123 109.812 36.1083 109.812C37.0803 109.812 37.9443 110.016 38.7003 110.424C39.4563 110.832 40.0443 111.414 40.4643 112.17C40.8963 112.926 41.1123 113.808 41.1123 114.816ZM37.9623 114.006C37.9623 113.478 37.7823 113.058 37.4223 112.746C37.0623 112.434 36.6123 112.278 36.0723 112.278C35.5563 112.278 35.1183 112.428 34.7583 112.728C34.4103 113.028 34.1943 113.454 34.1103 114.006H37.9623ZM55.5521 109.848C56.8001 109.848 57.7901 110.226 58.5221 110.982C59.2661 111.738 59.6381 112.788 59.6381 114.132V120H56.5781V114.546C56.5781 113.898 56.4041 113.4 56.0561 113.052C55.7201 112.692 55.2521 112.512 54.6521 112.512C54.0521 112.512 53.5781 112.692 53.2301 113.052C52.8941 113.4 52.7261 113.898 52.7261 114.546V120H49.6661V114.546C49.6661 113.898 49.4921 113.4 49.1441 113.052C48.8081 112.692 48.3401 112.512 47.7401 112.512C47.1401 112.512 46.6661 112.692 46.3181 113.052C45.9821 113.4 45.8141 113.898 45.8141 114.546V120H42.7361V109.956H45.8141V111.216C46.1261 110.796 46.5341 110.466 47.0381 110.226C47.5421 109.974 48.1121 109.848 48.7481 109.848C49.5041 109.848 50.1761 110.01 50.7641 110.334C51.3641 110.658 51.8321 111.12 52.1681 111.72C52.5161 111.168 52.9901 110.718 53.5901 110.37C54.1901 110.022 54.8441 109.848 55.5521 109.848ZM64.9933 114.978C64.9933 113.934 65.2033 113.022 65.6233 112.242C66.0553 111.462 66.6493 110.862 67.4053 110.442C68.1733 110.022 69.0493 109.812 70.0333 109.812C71.2933 109.812 72.3433 110.142 73.1833 110.802C74.0353 111.462 74.5933 112.392 74.8573 113.592H71.5813C71.3053 112.824 70.7713 112.44 69.9793 112.44C69.4153 112.44 68.9653 112.662 68.6293 113.106C68.2933 113.538 68.1253 114.162 68.1253 114.978C68.1253 115.794 68.2933 116.424 68.6293 116.868C68.9653 117.3 69.4153 117.516 69.9793 117.516C70.7713 117.516 71.3053 117.132 71.5813 116.364H74.8573C74.5933 117.54 74.0353 118.464 73.1833 119.136C72.3313 119.808 71.2813 120.144 70.0333 120.144C69.0493 120.144 68.1733 119.934 67.4053 119.514C66.6493 119.094 66.0553 118.494 65.6233 117.714C65.2033 116.934 64.9933 116.022 64.9933 114.978ZM75.8917 114.96C75.8917 113.928 76.0837 113.022 76.4677 112.242C76.8637 111.462 77.3977 110.862 78.0697 110.442C78.7417 110.022 79.4917 109.812 80.3197 109.812C81.0277 109.812 81.6457 109.956 82.1737 110.244C82.7137 110.532 83.1277 110.91 83.4157 111.378V109.956H86.4937V120H83.4157V118.578C83.1157 119.046 82.6957 119.424 82.1557 119.712C81.6277 120 81.0097 120.144 80.3017 120.144C79.4857 120.144 78.7417 119.934 78.0697 119.514C77.3977 119.082 76.8637 118.476 76.4677 117.696C76.0837 116.904 75.8917 115.992 75.8917 114.96ZM83.4157 114.978C83.4157 114.21 83.1997 113.604 82.7677 113.16C82.3477 112.716 81.8317 112.494 81.2197 112.494C80.6077 112.494 80.0857 112.716 79.6537 113.16C79.2337 113.592 79.0237 114.192 79.0237 114.96C79.0237 115.728 79.2337 116.34 79.6537 116.796C80.0857 117.24 80.6077 117.462 81.2197 117.462C81.8317 117.462 82.3477 117.24 82.7677 116.796C83.1997 116.352 83.4157 115.746 83.4157 114.978ZM88.1085 114.96C88.1085 113.928 88.3005 113.022 88.6845 112.242C89.0805 111.462 89.6145 110.862 90.2865 110.442C90.9585 110.022 91.7085 109.812 92.5365 109.812C93.1965 109.812 93.7965 109.95 94.3365 110.226C94.8885 110.502 95.3205 110.874 95.6325 111.342V106.68H98.7105V120H95.6325V118.56C95.3445 119.04 94.9305 119.424 94.3905 119.712C93.8625 120 93.2445 120.144 92.5365 120.144C91.7085 120.144 90.9585 119.934 90.2865 119.514C89.6145 119.082 89.0805 118.476 88.6845 117.696C88.3005 116.904 88.1085 115.992 88.1085 114.96ZM95.6325 114.978C95.6325 114.21 95.4165 113.604 94.9845 113.16C94.5645 112.716 94.0485 112.494 93.4365 112.494C92.8245 112.494 92.3025 112.716 91.8705 113.16C91.4505 113.592 91.2405 114.192 91.2405 114.96C91.2405 115.728 91.4505 116.34 91.8705 116.796C92.3025 117.24 92.8245 117.462 93.4365 117.462C94.0485 117.462 94.5645 117.24 94.9845 116.796C95.4165 116.352 95.6325 115.746 95.6325 114.978ZM100.325 114.96C100.325 113.928 100.517 113.022 100.901 112.242C101.297 111.462 101.831 110.862 102.503 110.442C103.175 110.022 103.925 109.812 104.753 109.812C105.461 109.812 106.079 109.956 106.607 110.244C107.147 110.532 107.561 110.91 107.849 111.378V109.956H110.927V120H107.849V118.578C107.549 119.046 107.129 119.424 106.589 119.712C106.061 120 105.443 120.144 104.735 120.144C103.919 120.144 103.175 119.934 102.503 119.514C101.831 119.082 101.297 118.476 100.901 117.696C100.517 116.904 100.325 115.992 100.325 114.96ZM107.849 114.978C107.849 114.21 107.633 113.604 107.201 113.16C106.781 112.716 106.265 112.494 105.653 112.494C105.041 112.494 104.519 112.716 104.087 113.16C103.667 113.592 103.457 114.192 103.457 114.96C103.457 115.728 103.667 116.34 104.087 116.796C104.519 117.24 105.041 117.462 105.653 117.462C106.265 117.462 106.781 117.24 107.201 116.796C107.633 116.352 107.849 115.746 107.849 114.978ZM118.499 108.912C117.959 108.912 117.515 108.756 117.167 108.444C116.831 108.12 116.663 107.724 116.663 107.256C116.663 106.776 116.831 106.38 117.167 106.068C117.515 105.744 117.959 105.582 118.499 105.582C119.027 105.582 119.459 105.744 119.795 106.068C120.143 106.38 120.317 106.776 120.317 107.256C120.317 107.724 120.143 108.12 119.795 108.444C119.459 108.756 119.027 108.912 118.499 108.912ZM120.047 121.296C120.047 122.532 119.735 123.42 119.111 123.96C118.487 124.512 117.617 124.788 116.501 124.788H115.295V122.178H116.033C116.369 122.178 116.609 122.112 116.753 121.98C116.897 121.848 116.969 121.632 116.969 121.332V109.956H120.047V121.296ZM126.832 120.144C125.848 120.144 124.96 119.934 124.168 119.514C123.388 119.094 122.77 118.494 122.314 117.714C121.87 116.934 121.648 116.022 121.648 114.978C121.648 113.946 121.876 113.04 122.332 112.26C122.788 111.468 123.412 110.862 124.204 110.442C124.996 110.022 125.884 109.812 126.868 109.812C127.852 109.812 128.74 110.022 129.532 110.442C130.324 110.862 130.948 111.468 131.404 112.26C131.86 113.04 132.088 113.946 132.088 114.978C132.088 116.01 131.854 116.922 131.386 117.714C130.93 118.494 130.3 119.094 129.496 119.514C128.704 119.934 127.816 120.144 126.832 120.144ZM126.832 117.48C127.42 117.48 127.918 117.264 128.326 116.832C128.746 116.4 128.956 115.782 128.956 114.978C128.956 114.174 128.752 113.556 128.344 113.124C127.948 112.692 127.456 112.476 126.868 112.476C126.268 112.476 125.77 112.692 125.374 113.124C124.978 113.544 124.78 114.162 124.78 114.978C124.78 115.782 124.972 116.4 125.356 116.832C125.752 117.264 126.244 117.48 126.832 117.48ZM137.536 109.812C138.244 109.812 138.862 109.956 139.39 110.244C139.93 110.532 140.344 110.91 140.632 111.378V109.956H143.71V119.982C143.71 120.906 143.524 121.74 143.152 122.484C142.792 123.24 142.234 123.84 141.478 124.284C140.734 124.728 139.804 124.95 138.688 124.95C137.2 124.95 135.994 124.596 135.07 123.888C134.146 123.192 133.618 122.244 133.486 121.044H136.528C136.624 121.428 136.852 121.728 137.212 121.944C137.572 122.172 138.016 122.286 138.544 122.286C139.18 122.286 139.684 122.1 140.056 121.728C140.44 121.368 140.632 120.786 140.632 119.982V118.56C140.332 119.028 139.918 119.412 139.39 119.712C138.862 120 138.244 120.144 137.536 120.144C136.708 120.144 135.958 119.934 135.286 119.514C134.614 119.082 134.08 118.476 133.684 117.696C133.3 116.904 133.108 115.992 133.108 114.96C133.108 113.928 133.3 113.022 133.684 112.242C134.08 111.462 134.614 110.862 135.286 110.442C135.958 110.022 136.708 109.812 137.536 109.812ZM140.632 114.978C140.632 114.21 140.416 113.604 139.984 113.16C139.564 112.716 139.048 112.494 138.436 112.494C137.824 112.494 137.302 112.716 136.87 113.16C136.45 113.592 136.24 114.192 136.24 114.96C136.24 115.728 136.45 116.34 136.87 116.796C137.302 117.24 137.824 117.462 138.436 117.462C139.048 117.462 139.564 117.24 139.984 116.796C140.416 116.352 140.632 115.746 140.632 114.978ZM145.325 114.96C145.325 113.928 145.517 113.022 145.901 112.242C146.297 111.462 146.831 110.862 147.503 110.442C148.175 110.022 148.925 109.812 149.753 109.812C150.461 109.812 151.079 109.956 151.607 110.244C152.147 110.532 152.561 110.91 152.849 111.378V109.956H155.927V120H152.849V118.578C152.549 119.046 152.129 119.424 151.589 119.712C151.061 120 150.443 120.144 149.735 120.144C148.919 120.144 148.175 119.934 147.503 119.514C146.831 119.082 146.297 118.476 145.901 117.696C145.517 116.904 145.325 115.992 145.325 114.96ZM152.849 114.978C152.849 114.21 152.633 113.604 152.201 113.16C151.781 112.716 151.265 112.494 150.653 112.494C150.041 112.494 149.519 112.716 149.087 113.16C148.667 113.592 148.457 114.192 148.457 114.96C148.457 115.728 148.667 116.34 149.087 116.796C149.519 117.24 150.041 117.462 150.653 117.462C151.265 117.462 151.781 117.24 152.201 116.796C152.633 116.352 152.849 115.746 152.849 114.978ZM157.542 114.96C157.542 113.928 157.734 113.022 158.118 112.242C158.514 111.462 159.048 110.862 159.72 110.442C160.392 110.022 161.142 109.812 161.97 109.812C162.63 109.812 163.23 109.95 163.77 110.226C164.322 110.502 164.754 110.874 165.066 111.342V106.68H168.144V120H165.066V118.56C164.778 119.04 164.364 119.424 163.824 119.712C163.296 120 162.678 120.144 161.97 120.144C161.142 120.144 160.392 119.934 159.72 119.514C159.048 119.082 158.514 118.476 158.118 117.696C157.734 116.904 157.542 115.992 157.542 114.96ZM165.066 114.978C165.066 114.21 164.85 113.604 164.418 113.16C163.998 112.716 163.482 112.494 162.87 112.494C162.258 112.494 161.736 112.716 161.304 113.16C160.884 113.592 160.674 114.192 160.674 114.96C160.674 115.728 160.884 116.34 161.304 116.796C161.736 117.24 162.258 117.462 162.87 117.462C163.482 117.462 163.998 117.24 164.418 116.796C164.85 116.352 165.066 115.746 165.066 114.978ZM169.759 114.96C169.759 113.928 169.951 113.022 170.335 112.242C170.731 111.462 171.265 110.862 171.937 110.442C172.609 110.022 173.359 109.812 174.187 109.812C174.895 109.812 175.513 109.956 176.041 110.244C176.581 110.532 176.995 110.91 177.283 111.378V109.956H180.361V120H177.283V118.578C176.983 119.046 176.563 119.424 176.023 119.712C175.495 120 174.877 120.144 174.169 120.144C173.353 120.144 172.609 119.934 171.937 119.514C171.265 119.082 170.731 118.476 170.335 117.696C169.951 116.904 169.759 115.992 169.759 114.96ZM177.283 114.978C177.283 114.21 177.067 113.604 176.635 113.16C176.215 112.716 175.699 112.494 175.087 112.494C174.475 112.494 173.953 112.716 173.521 113.16C173.101 113.592 172.891 114.192 172.891 114.96C172.891 115.728 173.101 116.34 173.521 116.796C173.953 117.24 174.475 117.462 175.087 117.462C175.699 117.462 176.215 117.24 176.635 116.796C177.067 116.352 177.283 115.746 177.283 114.978Z" fill="white"/>
<path d="M11.9876 50.76C12.3396 50.824 12.7716 50.888 13.2836 50.952C13.7956 50.984 14.2756 51 14.7236 51C15.8116 51 16.8036 50.84 17.6996 50.52C18.6276 50.2 19.4116 49.704 20.0516 49.032C20.7236 48.36 21.2356 47.496 21.5876 46.44C21.9716 45.352 22.1636 44.056 22.1636 42.552C22.1636 39.672 21.4916 37.512 20.1476 36.072C18.8036 34.6 17.0116 33.864 14.7716 33.864C14.3236 33.864 13.8596 33.88 13.3796 33.912C12.9316 33.944 12.4676 33.992 11.9876 34.056V50.76ZM14.6756 57.768C14.1316 57.768 13.5076 57.752 12.8036 57.72C12.0996 57.688 11.3636 57.624 10.5956 57.528C9.85963 57.432 9.10763 57.304 8.33963 57.144C7.60363 57.016 6.91563 56.824 6.27563 56.568C4.51563 55.896 3.63563 54.728 3.63563 53.064V30.648C3.63563 29.976 3.81163 29.464 4.16363 29.112C4.54763 28.728 5.05963 28.424 5.69963 28.2C7.07563 27.752 8.53163 27.464 10.0676 27.336C11.6036 27.176 12.9796 27.096 14.1956 27.096C16.6916 27.096 18.9476 27.4 20.9636 28.008C23.0116 28.616 24.7556 29.56 26.1956 30.84C27.6676 32.088 28.8036 33.672 29.6036 35.592C30.4036 37.512 30.8036 39.784 30.8036 42.408C30.8036 44.968 30.4196 47.208 29.6516 49.128C28.8836 51.016 27.7796 52.616 26.3396 53.928C24.9316 55.208 23.2356 56.168 21.2516 56.808C19.2676 57.448 17.0756 57.768 14.6756 57.768ZM44.0044 56.808C43.6524 56.904 43.0924 57 42.3244 57.096C41.5884 57.192 40.8524 57.24 40.1164 57.24C39.3804 57.24 38.7244 57.176 38.1484 57.048C37.6044 56.952 37.1404 56.76 36.7564 56.472C36.3724 56.184 36.0844 55.784 35.8924 55.272C35.7004 54.76 35.6044 54.088 35.6044 53.256V27.912C35.9564 27.848 36.5164 27.768 37.2844 27.672C38.0524 27.544 38.7884 27.48 39.4924 27.48C40.2284 27.48 40.8684 27.544 41.4124 27.672C41.9884 27.768 42.4684 27.96 42.8524 28.248C43.2364 28.536 43.5244 28.936 43.7164 29.448C43.9084 29.96 44.0044 30.632 44.0044 31.464V56.808ZM76.5814 55.992C76.1334 56.44 75.4774 56.776 74.6134 57C73.7814 57.256 72.7734 57.384 71.5894 57.384C70.4054 57.384 69.2854 57.208 68.2294 56.856C67.1734 56.504 66.3094 55.656 65.6374 54.312L60.8854 44.616C60.4054 43.624 59.9734 42.696 59.5894 41.832C59.2054 40.936 58.7894 39.912 58.3414 38.76L58.0534 38.808C58.1814 40.536 58.2454 42.296 58.2454 44.088C58.2774 45.88 58.2934 47.64 58.2934 49.368V56.808C57.9414 56.904 57.3974 57 56.6614 57.096C55.9574 57.192 55.2534 57.24 54.5494 57.24C53.8454 57.24 53.2214 57.192 52.6774 57.096C52.1334 57 51.6854 56.808 51.3334 56.52C50.9814 56.232 50.7094 55.848 50.5174 55.368C50.3254 54.856 50.2294 54.2 50.2294 53.4V29.4C50.6774 28.76 51.3654 28.28 52.2934 27.96C53.2214 27.64 54.2134 27.48 55.2694 27.48C56.4534 27.48 57.5734 27.672 58.6294 28.056C59.7174 28.408 60.5814 29.24 61.2214 30.552L66.0214 40.248C66.5014 41.24 66.9334 42.184 67.3174 43.08C67.7014 43.944 68.1174 44.952 68.5654 46.104L68.8054 46.056C68.6774 44.328 68.5974 42.6 68.5654 40.872C68.5334 39.144 68.5174 37.416 68.5174 35.688V27.912C68.8694 27.816 69.3974 27.72 70.1014 27.624C70.8374 27.528 71.5574 27.48 72.2614 27.48C73.6694 27.48 74.7414 27.736 75.4774 28.248C76.2134 28.728 76.5814 29.752 76.5814 31.32V55.992ZM108.824 56.808C108.472 56.904 107.912 57 107.144 57.096C106.408 57.192 105.672 57.24 104.936 57.24C104.2 57.24 103.544 57.176 102.968 57.048C102.424 56.952 101.96 56.76 101.576 56.472C101.192 56.184 100.904 55.784 100.712 55.272C100.52 54.76 100.424 54.088 100.424 53.256V45.768H91.2075V56.808C90.8555 56.904 90.2955 57 89.5275 57.096C88.7915 57.192 88.0555 57.24 87.3195 57.24C86.5835 57.24 85.9275 57.176 85.3515 57.048C84.8075 56.952 84.3435 56.76 83.9595 56.472C83.5755 56.184 83.2875 55.784 83.0955 55.272C82.9035 54.76 82.8075 54.088 82.8075 53.256V27.912C83.1595 27.848 83.7195 27.768 84.4875 27.672C85.2555 27.544 85.9915 27.48 86.6955 27.48C87.4315 27.48 88.0715 27.544 88.6155 27.672C89.1915 27.768 89.6715 27.96 90.0555 28.248C90.4395 28.536 90.7275 28.936 90.9195 29.448C91.1115 29.96 91.2075 30.632 91.2075 31.464V39.144H100.424V27.912C100.776 27.848 101.336 27.768 102.104 27.672C102.872 27.544 103.608 27.48 104.312 27.48C105.048 27.48 105.688 27.544 106.232 27.672C106.808 27.768 107.288 27.96 107.672 28.248C108.056 28.536 108.344 28.936 108.536 29.448C108.728 29.96 108.824 30.632 108.824 31.464V56.808ZM115.058 32.376C115.058 31 115.458 29.912 116.258 29.112C117.058 28.312 118.146 27.912 119.522 27.912H135.362C135.586 28.264 135.778 28.728 135.938 29.304C136.13 29.88 136.226 30.488 136.226 31.128C136.226 32.344 135.954 33.208 135.41 33.72C134.898 34.232 134.21 34.488 133.346 34.488H123.218V38.952H134.018C134.242 39.304 134.434 39.768 134.594 40.344C134.786 40.888 134.882 41.48 134.882 42.12C134.882 43.336 134.626 44.2 134.114 44.712C133.602 45.224 132.914 45.48 132.05 45.48H123.218V50.52H135.554C135.778 50.872 135.97 51.336 136.13 51.912C136.322 52.488 136.418 53.096 136.418 53.736C136.418 54.952 136.146 55.832 135.602 56.376C135.09 56.888 134.402 57.144 133.538 57.144H119.522C118.146 57.144 117.058 56.744 116.258 55.944C115.458 55.144 115.058 54.056 115.058 52.68V32.376ZM149.754 56.808C149.402 56.904 148.842 57 148.074 57.096C147.338 57.192 146.602 57.24 145.866 57.24C145.13 57.24 144.474 57.176 143.898 57.048C143.354 56.952 142.89 56.76 142.506 56.472C142.122 56.184 141.834 55.784 141.642 55.272C141.45 54.76 141.354 54.088 141.354 53.256V27.912C141.706 27.848 142.266 27.768 143.034 27.672C143.802 27.544 144.538 27.48 145.242 27.48C145.978 27.48 146.618 27.544 147.162 27.672C147.738 27.768 148.218 27.96 148.602 28.248C148.986 28.536 149.274 28.936 149.466 29.448C149.658 29.96 149.754 30.632 149.754 31.464V56.808ZM164.331 47.592V56.808C163.979 56.904 163.419 57 162.651 57.096C161.915 57.192 161.179 57.24 160.443 57.24C159.707 57.24 159.051 57.176 158.475 57.048C157.931 56.952 157.467 56.76 157.083 56.472C156.731 56.184 156.459 55.784 156.267 55.272C156.075 54.76 155.979 54.088 155.979 53.256V30.648C155.979 29.976 156.155 29.464 156.507 29.112C156.891 28.728 157.403 28.424 158.043 28.2C159.131 27.816 160.395 27.544 161.835 27.384C163.275 27.192 164.811 27.096 166.443 27.096C170.859 27.096 174.187 28.024 176.427 29.88C178.667 31.736 179.787 34.248 179.787 37.416C179.787 39.4 179.275 41.096 178.251 42.504C177.227 43.912 176.011 45 174.603 45.768C175.755 47.336 176.891 48.808 178.011 50.184C179.131 51.56 180.011 52.808 180.651 53.928C180.331 55.048 179.739 55.912 178.875 56.52C178.043 57.096 177.099 57.384 176.043 57.384C175.339 57.384 174.731 57.304 174.219 57.144C173.707 56.984 173.259 56.76 172.875 56.472C172.491 56.184 172.139 55.832 171.819 55.416C171.499 55 171.195 54.552 170.907 54.072L166.875 47.592H164.331ZM167.355 41.208C168.571 41.208 169.531 40.904 170.235 40.296C170.939 39.656 171.291 38.728 171.291 37.512C171.291 36.296 170.891 35.384 170.091 34.776C169.323 34.136 168.091 33.816 166.395 33.816C165.915 33.816 165.531 33.832 165.243 33.864C164.955 33.896 164.635 33.944 164.283 34.008V41.208H167.355ZM183.414 42.408C183.414 39.912 183.798 37.704 184.566 35.784C185.366 33.864 186.438 32.264 187.782 30.984C189.158 29.672 190.758 28.68 192.582 28.008C194.438 27.336 196.438 27 198.582 27C200.726 27 202.71 27.336 204.534 28.008C206.39 28.68 208.006 29.672 209.382 30.984C210.758 32.264 211.83 33.864 212.598 35.784C213.398 37.704 213.798 39.912 213.798 42.408C213.798 44.904 213.414 47.128 212.646 49.08C211.878 51 210.806 52.616 209.43 53.928C208.086 55.208 206.486 56.184 204.63 56.856C202.774 57.528 200.758 57.864 198.582 57.864C196.406 57.864 194.39 57.528 192.534 56.856C190.678 56.152 189.078 55.144 187.734 53.832C186.39 52.52 185.334 50.904 184.566 48.984C183.798 47.064 183.414 44.872 183.414 42.408ZM192.054 42.408C192.054 45.32 192.646 47.496 193.83 48.936C195.014 50.376 196.598 51.096 198.582 51.096C200.598 51.096 202.198 50.376 203.382 48.936C204.566 47.496 205.158 45.32 205.158 42.408C205.158 39.528 204.566 37.368 203.382 35.928C202.23 34.488 200.646 33.768 198.63 33.768C196.646 33.768 195.046 34.488 193.83 35.928C192.646 37.336 192.054 39.496 192.054 42.408Z" fill="white"/>
<path d="M15.3158 87.76C15.6678 87.824 16.0998 87.888 16.6118 87.952C17.1238 87.984 17.6038 88 18.0518 88C19.1398 88 20.1318 87.84 21.0278 87.52C21.9558 87.2 22.7398 86.704 23.3798 86.032C24.0518 85.36 24.5638 84.496 24.9158 83.44C25.2998 82.352 25.4918 81.056 25.4918 79.552C25.4918 76.672 24.8198 74.512 23.4758 73.072C22.1318 71.6 20.3398 70.864 18.0998 70.864C17.6518 70.864 17.1878 70.88 16.7078 70.912C16.2598 70.944 15.7958 70.992 15.3158 71.056V87.76ZM18.0038 94.768C17.4598 94.768 16.8358 94.752 16.1318 94.72C15.4278 94.688 14.6918 94.624 13.9238 94.528C13.1878 94.432 12.4358 94.304 11.6678 94.144C10.9318 94.016 10.2438 93.824 9.60375 93.568C7.84375 92.896 6.96375 91.728 6.96375 90.064V67.648C6.96375 66.976 7.13975 66.464 7.49175 66.112C7.87575 65.728 8.38775 65.424 9.02775 65.2C10.4038 64.752 11.8598 64.464 13.3958 64.336C14.9318 64.176 16.3078 64.096 17.5238 64.096C20.0198 64.096 22.2758 64.4 24.2918 65.008C26.3398 65.616 28.0838 66.56 29.5238 67.84C30.9958 69.088 32.1318 70.672 32.9318 72.592C33.7318 74.512 34.1318 76.784 34.1318 79.408C34.1318 81.968 33.7478 84.208 32.9798 86.128C32.2118 88.016 31.1078 89.616 29.6678 90.928C28.2598 92.208 26.5638 93.168 24.5798 93.808C22.5958 94.448 20.4038 94.768 18.0038 94.768ZM38.9325 69.376C38.9325 68 39.3325 66.912 40.1325 66.112C40.9325 65.312 42.0205 64.912 43.3965 64.912H59.2365C59.4605 65.264 59.6525 65.728 59.8125 66.304C60.0045 66.88 60.1005 67.488 60.1005 68.128C60.1005 69.344 59.8285 70.208 59.2845 70.72C58.7725 71.232 58.0845 71.488 57.2205 71.488H47.0925V75.952H57.8925C58.1165 76.304 58.3085 76.768 58.4685 77.344C58.6605 77.888 58.7565 78.48 58.7565 79.12C58.7565 80.336 58.5005 81.2 57.9885 81.712C57.4765 82.224 56.7885 82.48 55.9245 82.48H47.0925V87.52H59.4285C59.6525 87.872 59.8445 88.336 60.0045 88.912C60.1965 89.488 60.2925 90.096 60.2925 90.736C60.2925 91.952 60.0205 92.832 59.4765 93.376C58.9645 93.888 58.2765 94.144 57.4125 94.144H43.3965C42.0205 94.144 40.9325 93.744 40.1325 92.944C39.3325 92.144 38.9325 91.056 38.9325 89.68V69.376ZM92.2628 93.04C91.8148 93.424 91.1108 93.76 90.1508 94.048C89.2228 94.336 88.1988 94.48 87.0788 94.48C85.7348 94.48 84.5828 94.288 83.6228 93.904C82.6628 93.488 82.0068 92.928 81.6548 92.224C81.3028 91.488 80.8708 90.544 80.3588 89.392C79.8468 88.208 79.3028 86.896 78.7268 85.456C78.1828 84.016 77.6068 82.496 76.9988 80.896C76.4228 79.264 75.8628 77.616 75.3188 75.952C74.7748 74.288 74.2628 72.656 73.7828 71.056C73.3028 69.456 72.8868 67.952 72.5348 66.544C72.9828 66.096 73.6228 65.696 74.4548 65.344C75.3188 64.96 76.2308 64.768 77.1908 64.768C78.3748 64.768 79.3348 65.024 80.0708 65.536C80.8388 66.016 81.3988 66.928 81.7508 68.272C82.6148 71.408 83.4788 74.416 84.3428 77.296C85.2388 80.144 86.1668 83.12 87.1268 86.224H87.4148C88.2788 83.216 89.1588 79.936 90.0548 76.384C90.9828 72.832 91.8628 69.296 92.6948 65.776C93.2708 65.488 93.8788 65.248 94.5188 65.056C95.1908 64.864 95.9428 64.768 96.7748 64.768C97.9588 64.768 98.9668 65.04 99.7988 65.584C100.631 66.096 101.047 66.96 101.047 68.176C101.047 68.88 100.871 69.904 100.519 71.248C100.199 72.592 99.7668 74.112 99.2228 75.808C98.7108 77.472 98.1188 79.216 97.4468 81.04C96.8068 82.864 96.1508 84.592 95.4788 86.224C94.8388 87.824 94.2308 89.248 93.6548 90.496C93.0788 91.712 92.6148 92.56 92.2628 93.04ZM103.493 79.408C103.493 76.912 103.877 74.704 104.645 72.784C105.445 70.864 106.517 69.264 107.861 67.984C109.237 66.672 110.837 65.68 112.661 65.008C114.517 64.336 116.517 64 118.661 64C120.805 64 122.789 64.336 124.613 65.008C126.469 65.68 128.085 66.672 129.461 67.984C130.837 69.264 131.909 70.864 132.677 72.784C133.477 74.704 133.877 76.912 133.877 79.408C133.877 81.904 133.493 84.128 132.725 86.08C131.957 88 130.885 89.616 129.509 90.928C128.165 92.208 126.565 93.184 124.709 93.856C122.853 94.528 120.837 94.864 118.661 94.864C116.485 94.864 114.469 94.528 112.613 93.856C110.757 93.152 109.157 92.144 107.812 90.832C106.469 89.52 105.413 87.904 104.645 85.984C103.877 84.064 103.493 81.872 103.493 79.408ZM112.133 79.408C112.133 82.32 112.725 84.496 113.909 85.936C115.093 87.376 116.677 88.096 118.661 88.096C120.677 88.096 122.277 87.376 123.461 85.936C124.645 84.496 125.237 82.32 125.237 79.408C125.237 76.528 124.645 74.368 123.461 72.928C122.309 71.488 120.725 70.768 118.709 70.768C116.725 70.768 115.125 71.488 113.909 72.928C112.725 74.336 112.133 76.496 112.133 79.408ZM143.147 94.144C141.771 94.144 140.683 93.744 139.883 92.944C139.083 92.144 138.683 91.056 138.683 89.68V64.864C139.035 64.8 139.595 64.72 140.363 64.624C141.131 64.496 141.867 64.432 142.571 64.432C143.307 64.432 143.947 64.496 144.491 64.624C145.067 64.72 145.547 64.912 145.931 65.2C146.315 65.488 146.603 65.888 146.795 66.4C146.987 66.912 147.083 67.584 147.083 68.416V87.376H158.075C158.299 87.728 158.507 88.208 158.699 88.816C158.891 89.392 158.987 90 158.987 90.64C158.987 91.92 158.715 92.832 158.171 93.376C157.627 93.888 156.907 94.144 156.011 94.144H143.147ZM159.089 71.632C158.865 71.28 158.657 70.8 158.465 70.192C158.273 69.584 158.177 68.944 158.177 68.272C158.177 67.024 158.449 66.128 158.993 65.584C159.569 65.04 160.305 64.768 161.201 64.768H182.129C182.353 65.12 182.561 65.6 182.753 66.208C182.945 66.816 183.041 67.456 183.041 68.128C183.041 69.376 182.753 70.272 182.177 70.816C181.633 71.36 180.913 71.632 180.017 71.632H174.689V93.808C174.337 93.904 173.777 94 173.009 94.096C172.273 94.192 171.537 94.24 170.801 94.24C170.065 94.24 169.409 94.176 168.833 94.048C168.289 93.952 167.825 93.76 167.441 93.472C167.057 93.184 166.769 92.784 166.577 92.272C166.385 91.76 166.289 91.088 166.289 90.256V71.632H159.089ZM191.375 65.776C191.919 65.456 192.735 65.152 193.823 64.864C194.943 64.576 196.063 64.432 197.183 64.432C198.783 64.432 200.191 64.672 201.407 65.152C202.655 65.6 203.455 66.32 203.807 67.312C204.383 68.976 205.007 70.912 205.679 73.12C206.351 75.328 207.023 77.616 207.695 79.984C208.367 82.32 209.023 84.64 209.663 86.944C210.303 89.216 210.863 91.232 211.343 92.992C210.959 93.44 210.383 93.792 209.615 94.048C208.847 94.336 207.935 94.48 206.879 94.48C206.111 94.48 205.455 94.416 204.911 94.288C204.399 94.16 203.967 93.968 203.615 93.712C203.295 93.456 203.023 93.12 202.799 92.704C202.607 92.288 202.431 91.808 202.271 91.264L201.407 87.952H192.719C192.463 88.912 192.207 89.904 191.951 90.928C191.695 91.952 191.439 92.944 191.183 93.904C190.735 94.064 190.255 94.192 189.743 94.288C189.263 94.416 188.671 94.48 187.967 94.48C186.335 94.48 185.119 94.208 184.319 93.664C183.551 93.088 183.167 92.304 183.167 91.312C183.167 90.864 183.231 90.416 183.359 89.968C183.487 89.52 183.631 88.992 183.791 88.384C184.015 87.52 184.319 86.448 184.703 85.168C185.119 83.888 185.567 82.512 186.047 81.04C186.527 79.536 187.039 78 187.583 76.432C188.127 74.864 188.638 73.392 189.118 72.016C189.599 70.608 190.031 69.36 190.415 68.272C190.831 67.184 191.151 66.352 191.375 65.776ZM197.135 71.968C196.687 73.312 196.175 74.816 195.599 76.48C195.055 78.112 194.559 79.776 194.111 81.472H200.063C199.615 79.744 199.151 78.064 198.671 76.432C198.223 74.768 197.807 73.28 197.423 71.968H197.135Z" fill="#6BF0C1"/>
<path d="M34.7002 14L32.3002 9.83H30.9952V14H29.2852V3.575H32.8852C33.6852 3.575 34.3602 3.715 34.9102 3.995C35.4702 4.275 35.8852 4.65 36.1552 5.12C36.4352 5.59 36.5752 6.115 36.5752 6.695C36.5752 7.375 36.3752 7.995 35.9752 8.555C35.5852 9.105 34.9802 9.48 34.1602 9.68L36.7402 14H34.7002ZM30.9952 8.465H32.8852C33.5252 8.465 34.0052 8.305 34.3252 7.985C34.6552 7.665 34.8202 7.235 34.8202 6.695C34.8202 6.155 34.6602 5.735 34.3402 5.435C34.0202 5.125 33.5352 4.97 32.8852 4.97H30.9952V8.465ZM46.3377 9.665C46.3377 9.975 46.3177 10.255 46.2777 10.505H39.9627C40.0127 11.165 40.2577 11.695 40.6977 12.095C41.1377 12.495 41.6777 12.695 42.3177 12.695C43.2377 12.695 43.8877 12.31 44.2677 11.54H46.1127C45.8627 12.3 45.4077 12.925 44.7477 13.415C44.0977 13.895 43.2877 14.135 42.3177 14.135C41.5277 14.135 40.8177 13.96 40.1877 13.61C39.5677 13.25 39.0777 12.75 38.7177 12.11C38.3677 11.46 38.1927 10.71 38.1927 9.86C38.1927 9.01 38.3627 8.265 38.7027 7.625C39.0527 6.975 39.5377 6.475 40.1577 6.125C40.7877 5.775 41.5077 5.6 42.3177 5.6C43.0977 5.6 43.7927 5.77 44.4027 6.11C45.0127 6.45 45.4877 6.93 45.8277 7.55C46.1677 8.16 46.3377 8.865 46.3377 9.665ZM44.5527 9.125C44.5427 8.495 44.3177 7.99 43.8777 7.61C43.4377 7.23 42.8927 7.04 42.2427 7.04C41.6527 7.04 41.1477 7.23 40.7277 7.61C40.3077 7.98 40.0577 8.485 39.9777 9.125H44.5527ZM47.4505 9.86C47.4505 9.01 47.6205 8.265 47.9605 7.625C48.3105 6.975 48.7905 6.475 49.4005 6.125C50.0105 5.775 50.7105 5.6 51.5005 5.6C52.5005 5.6 53.3255 5.84 53.9755 6.32C54.6355 6.79 55.0805 7.465 55.3105 8.345H53.4655C53.3155 7.935 53.0755 7.615 52.7455 7.385C52.4155 7.155 52.0005 7.04 51.5005 7.04C50.8005 7.04 50.2405 7.29 49.8205 7.79C49.4105 8.28 49.2055 8.97 49.2055 9.86C49.2055 10.75 49.4105 11.445 49.8205 11.945C50.2405 12.445 50.8005 12.695 51.5005 12.695C52.4905 12.695 53.1455 12.26 53.4655 11.39H55.3105C55.0705 12.23 54.6205 12.9 53.9605 13.4C53.3005 13.89 52.4805 14.135 51.5005 14.135C50.7105 14.135 50.0105 13.96 49.4005 13.61C48.7905 13.25 48.3105 12.75 47.9605 12.11C47.6205 11.46 47.4505 10.71 47.4505 9.86ZM64.5896 9.665C64.5896 9.975 64.5696 10.255 64.5296 10.505H58.2146C58.2646 11.165 58.5096 11.695 58.9496 12.095C59.3896 12.495 59.9296 12.695 60.5696 12.695C61.4896 12.695 62.1396 12.31 62.5196 11.54H64.3646C64.1146 12.3 63.6596 12.925 62.9996 13.415C62.3496 13.895 61.5396 14.135 60.5696 14.135C59.7796 14.135 59.0696 13.96 58.4396 13.61C57.8196 13.25 57.3296 12.75 56.9696 12.11C56.6196 11.46 56.4446 10.71 56.4446 9.86C56.4446 9.01 56.6146 8.265 56.9546 7.625C57.3046 6.975 57.7896 6.475 58.4096 6.125C59.0396 5.775 59.7596 5.6 60.5696 5.6C61.3496 5.6 62.0446 5.77 62.6546 6.11C63.2646 6.45 63.7396 6.93 64.0796 7.55C64.4196 8.16 64.5896 8.865 64.5896 9.665ZM62.8046 9.125C62.7946 8.495 62.5696 7.99 62.1296 7.61C61.6896 7.23 61.1446 7.04 60.4946 7.04C59.9046 7.04 59.3996 7.23 58.9796 7.61C58.5596 7.98 58.3096 8.485 58.2296 9.125H62.8046ZM67.9825 6.965C68.2725 6.565 68.6675 6.24 69.1675 5.99C69.6775 5.73 70.2425 5.6 70.8625 5.6C71.5925 5.6 72.2525 5.775 72.8425 6.125C73.4325 6.475 73.8975 6.975 74.2375 7.625C74.5775 8.265 74.7475 9 74.7475 9.83C74.7475 10.66 74.5775 11.405 74.2375 12.065C73.8975 12.715 73.4275 13.225 72.8275 13.595C72.2375 13.955 71.5825 14.135 70.8625 14.135C70.2225 14.135 69.6525 14.01 69.1525 13.76C68.6625 13.51 68.2725 13.19 67.9825 12.8V14H66.2725V2.9H67.9825V6.965ZM73.0075 9.83C73.0075 9.26 72.8875 8.77 72.6475 8.36C72.4175 7.94 72.1075 7.625 71.7175 7.415C71.3375 7.195 70.9275 7.085 70.4875 7.085C70.0575 7.085 69.6475 7.195 69.2575 7.415C68.8775 7.635 68.5675 7.955 68.3275 8.375C68.0975 8.795 67.9825 9.29 67.9825 9.86C67.9825 10.43 68.0975 10.93 68.3275 11.36C68.5675 11.78 68.8775 12.1 69.2575 12.32C69.6475 12.54 70.0575 12.65 70.4875 12.65C70.9275 12.65 71.3375 12.54 71.7175 12.32C72.1075 12.09 72.4175 11.76 72.6475 11.33C72.8875 10.9 73.0075 10.4 73.0075 9.83ZM75.8685 9.83C75.8685 9 76.0385 8.265 76.3785 7.625C76.7285 6.985 77.1985 6.49 77.7885 6.14C78.3885 5.78 79.0485 5.6 79.7685 5.6C80.4185 5.6 80.9835 5.73 81.4635 5.99C81.9535 6.24 82.3435 6.555 82.6335 6.935V5.735H84.3585V14H82.6335V12.77C82.3435 13.16 81.9485 13.485 81.4485 13.745C80.9485 14.005 80.3785 14.135 79.7385 14.135C79.0285 14.135 78.3785 13.955 77.7885 13.595C77.1985 13.225 76.7285 12.715 76.3785 12.065C76.0385 11.405 75.8685 10.66 75.8685 9.83ZM82.6335 9.86C82.6335 9.29 82.5135 8.795 82.2735 8.375C82.0435 7.955 81.7385 7.635 81.3585 7.415C80.9785 7.195 80.5685 7.085 80.1285 7.085C79.6885 7.085 79.2785 7.195 78.8985 7.415C78.5185 7.625 78.2085 7.94 77.9685 8.36C77.7385 8.77 77.6235 9.26 77.6235 9.83C77.6235 10.4 77.7385 10.9 77.9685 11.33C78.2085 11.76 78.5185 12.09 78.8985 12.32C79.2885 12.54 79.6985 12.65 80.1285 12.65C80.5685 12.65 80.9785 12.54 81.3585 12.32C81.7385 12.1 82.0435 11.78 82.2735 11.36C82.5135 10.93 82.6335 10.43 82.6335 9.86ZM92.211 6.95C92.501 6.57 92.896 6.25 93.396 5.99C93.896 5.73 94.461 5.6 95.091 5.6C95.811 5.6 96.466 5.78 97.056 6.14C97.656 6.49 98.126 6.985 98.466 7.625C98.806 8.265 98.976 9 98.976 9.83C98.976 10.66 98.806 11.405 98.466 12.065C98.126 12.715 97.656 13.225 97.056 13.595C96.466 13.955 95.811 14.135 95.091 14.135C94.461 14.135 93.901 14.01 93.411 13.76C92.921 13.5 92.521 13.18 92.211 12.8V17.93H90.501V5.735H92.211V6.95ZM97.236 9.83C97.236 9.26 97.116 8.77 96.876 8.36C96.646 7.94 96.336 7.625 95.946 7.415C95.566 7.195 95.156 7.085 94.716 7.085C94.286 7.085 93.876 7.195 93.486 7.415C93.106 7.635 92.796 7.955 92.556 8.375C92.326 8.795 92.211 9.29 92.211 9.86C92.211 10.43 92.326 10.93 92.556 11.36C92.796 11.78 93.106 12.1 93.486 12.32C93.876 12.54 94.286 12.65 94.716 12.65C95.156 12.65 95.566 12.54 95.946 12.32C96.336 12.09 96.646 11.76 96.876 11.33C97.116 10.9 97.236 10.4 97.236 9.83ZM100.097 9.83C100.097 9 100.267 8.265 100.607 7.625C100.957 6.985 101.427 6.49 102.017 6.14C102.617 5.78 103.277 5.6 103.997 5.6C104.647 5.6 105.212 5.73 105.692 5.99C106.182 6.24 106.572 6.555 106.862 6.935V5.735H108.587V14H106.862V12.77C106.572 13.16 106.177 13.485 105.677 13.745C105.177 14.005 104.607 14.135 103.967 14.135C103.257 14.135 102.607 13.955 102.017 13.595C101.427 13.225 100.957 12.715 100.607 12.065C100.267 11.405 100.097 10.66 100.097 9.83ZM106.862 9.86C106.862 9.29 106.742 8.795 106.502 8.375C106.272 7.955 105.967 7.635 105.587 7.415C105.207 7.195 104.797 7.085 104.357 7.085C103.917 7.085 103.507 7.195 103.127 7.415C102.747 7.625 102.437 7.94 102.197 8.36C101.967 8.77 101.852 9.26 101.852 9.83C101.852 10.4 101.967 10.9 102.197 11.33C102.437 11.76 102.747 12.09 103.127 12.32C103.517 12.54 103.927 12.65 104.357 12.65C104.797 12.65 105.207 12.54 105.587 12.32C105.967 12.1 106.272 11.78 106.502 11.36C106.742 10.93 106.862 10.43 106.862 9.86ZM112.543 6.935C112.793 6.515 113.123 6.19 113.533 5.96C113.953 5.72 114.448 5.6 115.018 5.6V7.37H114.583C113.913 7.37 113.403 7.54 113.053 7.88C112.713 8.22 112.543 8.81 112.543 9.65V14H110.833V5.735H112.543V6.935ZM118.585 7.13V11.705C118.585 12.015 118.655 12.24 118.795 12.38C118.945 12.51 119.195 12.575 119.545 12.575H120.595V14H119.245C118.475 14 117.885 13.82 117.475 13.46C117.065 13.1 116.86 12.515 116.86 11.705V7.13H115.885V5.735H116.86V3.68H118.585V5.735H120.595V7.13H118.585ZM129.746 9.665C129.746 9.975 129.726 10.255 129.686 10.505H123.371C123.421 11.165 123.666 11.695 124.106 12.095C124.546 12.495 125.086 12.695 125.726 12.695C126.646 12.695 127.296 12.31 127.676 11.54H129.521C129.271 12.3 128.816 12.925 128.156 13.415C127.506 13.895 126.696 14.135 125.726 14.135C124.936 14.135 124.226 13.96 123.596 13.61C122.976 13.25 122.486 12.75 122.126 12.11C121.776 11.46 121.601 10.71 121.601 9.86C121.601 9.01 121.771 8.265 122.111 7.625C122.461 6.975 122.946 6.475 123.566 6.125C124.196 5.775 124.916 5.6 125.726 5.6C126.506 5.6 127.201 5.77 127.811 6.11C128.421 6.45 128.896 6.93 129.236 7.55C129.576 8.16 129.746 8.865 129.746 9.665ZM127.961 9.125C127.951 8.495 127.726 7.99 127.286 7.61C126.846 7.23 126.301 7.04 125.651 7.04C125.061 7.04 124.556 7.23 124.136 7.61C123.716 7.98 123.466 8.485 123.386 9.125H127.961ZM134.755 9.83C134.755 9 134.925 8.265 135.265 7.625C135.615 6.985 136.085 6.49 136.675 6.14C137.275 5.78 137.94 5.6 138.67 5.6C139.21 5.6 139.74 5.72 140.26 5.96C140.79 6.19 141.21 6.5 141.52 6.89V2.9H143.245V14H141.52V12.755C141.24 13.155 140.85 13.485 140.35 13.745C139.86 14.005 139.295 14.135 138.655 14.135C137.935 14.135 137.275 13.955 136.675 13.595C136.085 13.225 135.615 12.715 135.265 12.065C134.925 11.405 134.755 10.66 134.755 9.83ZM141.52 9.86C141.52 9.29 141.4 8.795 141.16 8.375C140.93 7.955 140.625 7.635 140.245 7.415C139.865 7.195 139.455 7.085 139.015 7.085C138.575 7.085 138.165 7.195 137.785 7.415C137.405 7.625 137.095 7.94 136.855 8.36C136.625 8.77 136.51 9.26 136.51 9.83C136.51 10.4 136.625 10.9 136.855 11.33C137.095 11.76 137.405 12.09 137.785 12.32C138.175 12.54 138.585 12.65 139.015 12.65C139.455 12.65 139.865 12.54 140.245 12.32C140.625 12.1 140.93 11.78 141.16 11.36C141.4 10.93 141.52 10.43 141.52 9.86ZM149.076 14.135C148.296 14.135 147.591 13.96 146.961 13.61C146.331 13.25 145.836 12.75 145.476 12.11C145.116 11.46 144.936 10.71 144.936 9.86C144.936 9.02 145.121 8.275 145.491 7.625C145.861 6.975 146.366 6.475 147.006 6.125C147.646 5.775 148.361 5.6 149.151 5.6C149.941 5.6 150.656 5.775 151.296 6.125C151.936 6.475 152.441 6.975 152.811 7.625C153.181 8.275 153.366 9.02 153.366 9.86C153.366 10.7 153.176 11.445 152.796 12.095C152.416 12.745 151.896 13.25 151.236 13.61C150.586 13.96 149.866 14.135 149.076 14.135ZM149.076 12.65C149.516 12.65 149.926 12.545 150.306 12.335C150.696 12.125 151.011 11.81 151.251 11.39C151.491 10.97 151.611 10.46 151.611 9.86C151.611 9.26 151.496 8.755 151.266 8.345C151.036 7.925 150.731 7.61 150.351 7.4C149.971 7.19 149.561 7.085 149.121 7.085C148.681 7.085 148.271 7.19 147.891 7.4C147.521 7.61 147.226 7.925 147.006 8.345C146.786 8.755 146.676 9.26 146.676 9.86C146.676 10.75 146.901 11.44 147.351 11.93C147.811 12.41 148.386 12.65 149.076 12.65ZM161.953 14.135C161.303 14.135 160.718 14.02 160.198 13.79C159.688 13.55 159.283 13.23 158.983 12.83C158.683 12.42 158.523 11.965 158.503 11.465H160.273C160.303 11.815 160.468 12.11 160.768 12.35C161.078 12.58 161.463 12.695 161.923 12.695C162.403 12.695 162.773 12.605 163.033 12.425C163.303 12.235 163.438 11.995 163.438 11.705C163.438 11.395 163.288 11.165 162.988 11.015C162.698 10.865 162.233 10.7 161.593 10.52C160.973 10.35 160.468 10.185 160.078 10.025C159.688 9.865 159.348 9.62 159.058 9.29C158.778 8.96 158.638 8.525 158.638 7.985C158.638 7.545 158.768 7.145 159.028 6.785C159.288 6.415 159.658 6.125 160.138 5.915C160.628 5.705 161.188 5.6 161.818 5.6C162.758 5.6 163.513 5.84 164.083 6.32C164.663 6.79 164.973 7.435 165.013 8.255H163.303C163.273 7.885 163.123 7.59 162.853 7.37C162.583 7.15 162.218 7.04 161.758 7.04C161.308 7.04 160.963 7.125 160.723 7.295C160.483 7.465 160.363 7.69 160.363 7.97C160.363 8.19 160.443 8.375 160.603 8.525C160.763 8.675 160.958 8.795 161.188 8.885C161.418 8.965 161.758 9.07 162.208 9.2C162.808 9.36 163.298 9.525 163.678 9.695C164.068 9.855 164.403 10.095 164.683 10.415C164.963 10.735 165.108 11.16 165.118 11.69C165.118 12.16 164.988 12.58 164.728 12.95C164.468 13.32 164.098 13.61 163.618 13.82C163.148 14.03 162.593 14.135 161.953 14.135ZM174.541 9.665C174.541 9.975 174.521 10.255 174.481 10.505H168.166C168.216 11.165 168.461 11.695 168.901 12.095C169.341 12.495 169.881 12.695 170.521 12.695C171.441 12.695 172.091 12.31 172.471 11.54H174.316C174.066 12.3 173.611 12.925 172.951 13.415C172.301 13.895 171.491 14.135 170.521 14.135C169.731 14.135 169.021 13.96 168.391 13.61C167.771 13.25 167.281 12.75 166.921 12.11C166.571 11.46 166.396 10.71 166.396 9.86C166.396 9.01 166.566 8.265 166.906 7.625C167.256 6.975 167.741 6.475 168.361 6.125C168.991 5.775 169.711 5.6 170.521 5.6C171.301 5.6 171.996 5.77 172.606 6.11C173.216 6.45 173.691 6.93 174.031 7.55C174.371 8.16 174.541 8.865 174.541 9.665ZM172.756 9.125C172.746 8.495 172.521 7.99 172.081 7.61C171.641 7.23 171.096 7.04 170.446 7.04C169.856 7.04 169.351 7.23 168.931 7.61C168.511 7.98 168.261 8.485 168.181 9.125H172.756ZM183.709 5.735V14H181.999V13.025C181.729 13.365 181.374 13.635 180.934 13.835C180.504 14.025 180.044 14.12 179.554 14.12C178.904 14.12 178.319 13.985 177.799 13.715C177.289 13.445 176.884 13.045 176.584 12.515C176.294 11.985 176.149 11.345 176.149 10.595V5.735H177.844V10.34C177.844 11.08 178.029 11.65 178.399 12.05C178.769 12.44 179.274 12.635 179.914 12.635C180.554 12.635 181.059 12.44 181.429 12.05C181.809 11.65 181.999 11.08 181.999 10.34V5.735H183.709Z" fill="white"/>
</svg>
